<svg version="1.1" id="Layer_1" xmlns="http://www.w3.org/2000/svg" xmlns:xlink="http://www.w3.org/1999/xlink" x="0px" y="0px"
	 width="100%" viewBox="0 0 1024 1024" enable-background="new 0 0 1024 1024" xml:space="preserve">
<path fill="#064FB2" opacity="1.000000" stroke="none" 
	d="
M653.000000,1025.000000 
	C435.333344,1025.000000 218.166672,1025.000000 1.000000,1025.000000 
	C1.000000,683.666687 1.000000,342.333344 1.000000,1.000000 
	C342.333344,1.000000 683.666687,1.000000 1025.000000,1.000000 
	C1025.000000,342.333344 1025.000000,683.666687 1025.000000,1025.000000 
	C901.166687,1025.000000 777.333313,1025.000000 653.000000,1025.000000 
M873.360840,596.388306 
	C873.360840,596.388306 873.463196,596.252258 874.108398,596.222290 
	C874.434082,595.514282 874.759827,594.806213 875.273499,593.649353 
	C875.446960,593.367676 875.673706,593.138672 876.644043,592.954041 
	C877.478210,592.166260 878.483032,591.496521 879.121643,590.573486 
	C895.796387,566.471313 907.293701,540.182007 912.205383,511.195374 
	C912.993835,506.541962 912.899780,501.739044 913.245361,496.312866 
	C913.307983,495.623291 913.370605,494.933685 914.121887,494.021271 
	C915.041321,492.289764 916.685669,490.586975 916.755615,488.821838 
	C917.068481,480.921204 916.825439,473.000397 917.002136,465.091797 
	C917.097473,460.827484 916.246155,457.019775 913.246887,453.048981 
	C913.155701,452.036011 913.064514,451.023041 913.249023,449.291046 
	C913.186584,448.524506 913.124084,447.757996 913.335144,446.616547 
	C913.024475,446.003265 912.713867,445.389954 912.233948,444.199188 
	C912.102173,443.821259 911.970398,443.443298 912.140442,442.424683 
	C912.114990,441.956116 912.089539,441.487549 912.332275,440.395142 
	C911.582764,437.911713 910.833313,435.428253 909.934692,432.939026 
	C909.934692,432.939026 909.862244,433.069489 910.131897,432.419403 
	C910.104675,431.952942 910.077454,431.486481 910.363708,430.418335 
	C907.285950,420.893951 904.208191,411.369598 900.845581,401.156738 
	C900.190613,399.452637 899.597290,397.721832 898.871704,396.048401 
	C880.255676,353.114258 850.284302,320.309204 809.795044,297.173645 
	C784.804199,282.893829 757.924988,274.132385 728.688477,271.258423 
	C725.107239,271.192780 721.526001,271.127136 717.018433,271.081207 
	C712.033875,271.083496 707.049316,271.085785 701.404480,270.666534 
	C698.572205,271.052185 695.739868,271.437866 693.028381,272.016235 
	C693.028381,272.016235 693.126282,272.221527 692.403198,271.905182 
	C691.615662,271.937347 690.828186,271.969513 689.335571,271.865295 
	C688.226624,272.144928 687.117615,272.424530 686.032104,272.892853 
	C686.032104,272.892853 686.039917,273.082886 685.251709,272.746368 
	C683.828186,272.800293 682.404602,272.854187 680.461731,272.607361 
	C679.239685,272.932281 678.017700,273.257202 676.058350,273.769501 
	C675.051208,273.879272 674.044067,273.989044 672.707031,273.732849 
	C672.075256,274.047058 671.443420,274.361237 670.231628,274.835388 
	C669.835693,274.897308 669.439697,274.959229 668.483337,274.629700 
	C666.263306,275.318024 664.043213,276.006317 661.232788,276.857391 
	C660.831482,276.931335 660.430115,277.005280 659.489990,276.711273 
	C655.324890,278.140808 651.159729,279.570343 646.423584,281.268250 
	C645.628784,281.541321 644.834045,281.814362 643.682068,281.763214 
	C643.063416,282.111298 642.444824,282.459381 641.179199,283.097809 
	C640.288574,283.413055 639.397888,283.728333 637.778076,283.805298 
	C630.400879,286.927124 622.979736,289.951752 615.682739,293.250946 
	C614.184570,293.928284 613.150574,295.632446 611.563110,297.050385 
	C611.563110,297.050385 611.204651,297.198090 610.469116,297.148529 
	C609.007751,298.140503 607.546387,299.132446 605.632996,300.517578 
	C605.150024,301.343323 604.667053,302.169037 603.819641,303.395264 
	C604.827454,304.649078 605.835205,305.902893 607.126709,307.699921 
	C607.792725,308.113068 608.458801,308.526245 609.560364,309.224426 
	C609.888733,309.273865 610.217102,309.323334 610.655640,309.332794 
	C610.655640,309.332794 610.582092,309.424042 610.524902,310.053467 
	C610.983032,310.416626 611.441162,310.779785 612.076233,311.584595 
	C612.259216,311.850098 612.380859,312.141235 612.347290,313.143494 
	C612.937500,313.746124 613.527771,314.348755 614.613525,315.078613 
	C614.780029,315.041687 614.946533,315.004761 615.293884,315.415100 
	C615.486145,315.676819 615.632935,315.961945 615.533997,316.940063 
	C616.100525,317.576019 616.666992,318.212006 617.646423,319.289795 
	C618.391907,319.897980 619.137329,320.506134 619.993042,320.998291 
	C619.993042,320.998291 619.876038,321.108887 619.799683,321.707184 
	C619.910767,322.092773 620.021851,322.478363 620.101318,323.572937 
	C621.086792,324.709137 622.072266,325.845306 623.550537,327.282684 
	C623.920898,327.328308 624.291321,327.373962 624.687195,327.730347 
	C624.687195,327.730347 624.867798,327.984467 624.560608,327.996582 
	C624.488159,328.192993 624.464966,328.395050 624.505798,329.131378 
	C624.720398,329.401611 624.934998,329.671814 625.307739,330.263519 
	C625.307739,330.263519 625.432983,330.599274 625.343811,331.344269 
	C627.993103,336.270355 630.827393,341.108154 633.233215,346.150421 
	C635.162109,350.193176 637.437317,350.281342 641.150330,348.391998 
	C648.802002,344.498505 656.699280,341.088989 664.475098,337.436859 
	C667.377991,336.073395 670.223816,334.588470 672.999451,333.008240 
	C672.999451,333.008240 672.914673,332.850891 673.671326,333.029358 
	C674.445801,332.974609 675.220276,332.919861 676.551331,333.281677 
	C684.252563,332.332092 691.956665,331.403839 699.648987,330.386566 
	C700.181152,330.316223 700.625732,329.582916 701.823181,329.054779 
	C702.541870,329.051300 703.260620,329.047791 704.677246,329.479156 
	C713.939819,330.128387 723.369812,329.904785 732.423584,331.642059 
	C744.440247,333.947845 756.163330,337.783997 768.521362,341.396088 
	C769.750671,341.853241 770.979919,342.310394 772.568848,342.932922 
	C772.568848,342.932922 772.954346,343.022888 773.352051,343.320862 
	C773.618164,343.524597 773.910950,343.677155 774.573547,343.904419 
	C774.573547,343.904419 774.938049,343.932098 775.389343,344.430054 
	C780.529480,347.358368 785.669617,350.286682 791.114136,353.806671 
	C794.170410,356.035431 797.304810,358.165344 800.270508,360.508698 
	C822.429626,378.017700 839.057190,399.856354 848.765320,426.307434 
	C856.528076,447.457947 859.452576,469.611328 856.139771,492.151855 
	C850.325928,531.709839 831.080444,563.600220 800.029724,588.460632 
	C796.813904,591.035339 795.249329,593.658264 795.255493,597.652710 
	C795.273621,609.481934 795.185730,621.311890 795.018555,633.139893 
	C794.997009,634.666016 794.264404,636.182190 793.861206,637.703003 
	C792.539978,637.181885 791.099670,636.851013 789.916016,636.110046 
	C778.790100,629.145203 767.619873,622.244080 756.661804,615.021973 
	C752.909180,612.548706 749.558716,612.422974 745.442932,613.848511 
	C731.887756,618.543335 717.662720,619.332397 703.582642,618.850952 
	C693.039124,618.490417 682.212524,617.054199 672.164307,613.970886 
	C660.033081,610.248413 647.909180,605.426270 637.042114,598.961975 
	C626.166321,592.492615 616.758911,583.515015 606.896240,575.407654 
	C604.138672,573.140930 602.318665,572.528259 600.040344,575.790833 
	C597.966492,578.760681 595.426147,581.400391 593.254639,584.307556 
	C589.686829,589.084106 590.772522,595.320068 595.138000,599.012207 
	C599.416687,602.630798 603.962463,606.244568 607.200867,610.721436 
	C615.474426,622.159058 619.127075,634.867371 614.274292,648.822876 
	C613.142151,652.078613 614.116516,654.046387 616.570312,655.575623 
	C619.941223,657.676331 623.295654,660.069336 627.000488,661.319946 
	C639.587463,665.568787 652.184692,669.917175 665.036438,673.222900 
	C687.837219,679.087585 711.035645,680.375000 734.337097,676.515625 
	C739.639160,675.637451 744.397522,675.234131 749.018127,678.644531 
	C753.155884,681.698608 757.612305,684.320679 761.926575,687.135681 
	C778.494934,697.946716 795.015808,708.831787 811.675415,719.500366 
	C814.555603,721.344727 817.905579,722.833801 821.238464,723.529358 
	C838.292603,727.088501 852.611328,715.590149 852.899963,698.167847 
	C853.241760,677.537354 853.918884,656.888977 853.374268,636.276733 
	C853.092224,625.602966 854.755249,616.932312 863.674805,609.998962 
	C867.335022,607.153870 869.387329,602.240234 872.494690,597.819214 
	C872.704468,597.516113 872.914307,597.213013 873.381409,596.813293 
	C873.381409,596.813293 873.305237,596.549255 873.360840,596.388306 
M535.666382,596.468140 
	C535.718140,579.638123 535.843994,562.807678 535.733032,545.978760 
	C535.718323,543.743286 534.500244,541.515747 533.839478,539.284485 
	C531.056458,540.318115 527.729309,540.715576 525.611572,542.527039 
	C521.981323,545.632385 519.242920,549.752747 515.893372,553.218140 
	C494.990387,574.843872 474.263733,596.647827 453.011353,617.925903 
	C428.585449,642.381409 403.697754,666.376343 378.955414,690.514709 
	C374.027832,695.322021 372.906921,695.411499 367.769623,690.727905 
	C357.336578,681.216125 346.908203,671.683228 336.837860,661.792603 
	C309.653748,635.093689 282.484467,608.375305 255.641144,581.335205 
	C232.682755,558.208496 210.005295,534.733215 191.501648,507.753326 
	C174.239456,482.583557 162.170044,455.330292 163.649078,423.975311 
	C165.461334,385.556458 182.474075,356.182037 217.400681,338.569000 
	C256.002167,319.102753 301.835938,329.654266 331.055511,356.758392 
	C341.109589,366.084564 349.998901,376.727112 358.925262,387.190613 
	C367.333679,397.046906 375.654877,397.827728 384.482544,388.308716 
	C392.620209,379.533783 400.010559,370.039673 408.430145,361.557190 
	C434.099731,335.696045 464.573639,323.583405 501.281433,330.702393 
	C524.909180,335.284698 543.739868,347.660736 557.940552,366.874451 
	C571.256165,384.890656 577.035645,405.517181 577.017822,427.763702 
	C577.014343,432.073029 578.477722,433.210510 582.490784,433.165527 
	C596.820312,433.004944 611.154663,432.964783 625.482666,433.181366 
	C629.597046,433.243561 631.031067,432.042755 630.942688,427.836487 
	C629.721802,369.726837 606.121399,323.590424 555.753357,293.702087 
	C516.488098,270.402161 474.389740,267.167419 431.395294,283.986115 
	C410.333893,292.225006 392.076813,304.801666 376.172424,320.785248 
	C373.185394,323.787140 371.329773,323.313812 368.356415,320.700195 
	C360.751068,314.014893 353.159729,307.197754 344.871918,301.425323 
	C313.921265,279.868286 279.412506,269.078308 241.971848,274.945068 
	C180.344284,284.601715 139.029358,320.728058 119.206505,379.346802 
	C102.154198,429.772675 111.384064,478.128571 138.541809,523.086243 
	C159.807785,558.290466 187.271561,588.734924 215.850830,618.001831 
	C245.218277,648.075745 275.452332,677.316162 305.719360,706.493652 
	C320.425873,720.670715 335.943054,734.020691 351.335876,747.467407 
	C363.276031,757.898071 380.257172,757.486511 391.853363,746.887390 
	C410.003540,730.297791 428.396820,713.959778 446.156464,696.960754 
	C473.042145,671.226501 499.463623,645.007568 526.101746,619.014465 
	C532.177673,613.085571 537.580444,606.903870 535.666382,596.468140 
M598.499634,470.381866 
	C619.997314,470.393768 641.495178,470.443970 662.992615,470.380310 
	C666.618835,470.369568 668.923828,471.264893 670.851440,474.885468 
	C677.855957,488.041748 692.428589,493.155518 705.312256,487.518494 
	C716.328247,482.698639 722.877258,471.674316 721.488831,460.287537 
	C719.951050,447.675598 711.236633,438.539642 698.766235,436.465851 
	C687.112244,434.527832 675.444946,440.631744 670.331848,452.115631 
	C668.509094,456.209595 666.291809,457.258209 662.091614,457.250092 
	C595.759521,457.122040 529.427124,457.159760 463.094757,457.146179 
	C423.429047,457.138031 383.763306,457.103088 344.097595,457.093842 
	C341.218353,457.093140 338.769958,457.147827 337.286072,453.621033 
	C332.434021,442.089081 323.353302,436.514557 310.982849,436.894257 
	C297.443176,437.309845 287.059937,447.065765 285.397308,460.933960 
	C283.813934,474.141022 292.403107,486.151184 306.135376,489.931854 
	C317.997986,493.197784 332.074219,486.788269 336.787445,475.221832 
	C338.634430,470.689209 341.214905,469.925781 345.460358,469.955414 
	C380.957001,470.203003 416.454712,470.335876 451.952271,470.400482 
	C485.785095,470.462067 519.618347,470.461884 553.450745,470.315338 
	C557.757019,470.296692 559.387024,471.547546 559.235413,475.993256 
	C558.991394,483.147064 559.195923,490.323700 559.433228,497.483337 
	C559.560486,501.325378 558.102417,502.787201 554.203735,502.781342 
	C504.204132,502.706329 454.204407,502.712463 404.204834,502.793427 
	C401.061279,502.798523 399.846039,501.291748 398.113800,498.896393 
	C394.686554,494.157288 391.077118,488.819946 386.225739,485.980957 
	C372.960510,478.218231 356.394165,483.746704 349.568787,497.177338 
	C343.169373,509.769775 348.610168,526.699158 361.067993,532.957703 
	C374.916931,539.915161 391.502289,534.662964 397.974518,520.705139 
	C399.884399,516.586243 402.106934,515.596130 406.265747,515.603516 
	C455.597778,515.691284 504.930237,515.653748 554.262146,515.497131 
	C558.440857,515.483887 559.253418,517.168274 559.247375,520.864197 
	C559.203003,548.195068 559.212280,575.527161 559.468201,602.856445 
	C559.520081,608.393372 559.225403,613.054199 552.993530,615.120300 
	C551.517700,615.609558 550.326965,617.073669 549.105896,618.198730 
	C537.375122,629.007263 537.365967,647.603149 549.063599,658.121155 
	C560.840088,668.710083 578.921692,667.070435 588.688721,655.270264 
	C597.421753,644.719360 597.373596,624.021973 581.925293,615.758240 
	C573.431702,611.214905 572.243835,605.916443 572.927612,598.149658 
	C573.073181,596.495850 573.152405,594.788330 572.914429,593.156250 
	C570.974548,579.852966 574.488403,568.615479 583.968872,558.715271 
	C589.005066,553.456116 592.402832,546.627869 596.540161,540.507935 
	C596.279053,540.036682 596.017944,539.565369 595.756836,539.094116 
	C589.673523,539.094116 583.586243,538.964355 577.508423,539.146545 
	C574.260132,539.243896 572.950684,538.004700 573.006897,534.803162 
	C573.088806,530.138672 573.158508,525.460083 572.887024,520.807678 
	C572.659424,516.906677 574.013245,515.498474 578.024841,515.594055 
	C588.519287,515.844116 599.022888,515.727295 609.522827,515.728455 
	C647.689331,515.732727 685.855957,515.769043 724.022156,515.656250 
	C727.941895,515.644653 730.836975,516.248169 732.069519,520.487305 
	C732.518982,522.033325 733.641846,523.413818 734.586792,524.780457 
	C740.434937,533.237976 751.697327,537.362305 762.462463,535.034058 
	C772.759338,532.807068 781.390564,524.403748 783.137695,514.904602 
	C785.759094,500.652130 777.848083,487.173187 764.419067,483.011658 
	C750.245544,478.619385 736.870483,484.731720 730.825684,498.690796 
	C729.476868,501.805481 727.827209,502.884613 724.495056,502.845886 
	C709.830322,502.675415 695.162720,502.755920 680.496155,502.749329 
	C646.663025,502.734131 612.829651,502.654510 578.997070,502.787445 
	C574.525391,502.804993 572.618652,501.604492 572.845276,496.870850 
	C573.195740,489.552216 573.109375,482.208984 573.068420,474.877014 
	C573.050842,471.731750 574.215820,470.387848 577.502014,470.454102 
	C584.164673,470.588409 590.833374,470.423187 598.499634,470.381866 
z"/>
<path fill="#F9FCFD" opacity="1.000000" stroke="none" 
	d="
M535.666016,596.960144 
	C537.580444,606.903870 532.177673,613.085571 526.101746,619.014465 
	C499.463623,645.007568 473.042145,671.226501 446.156464,696.960754 
	C428.396820,713.959778 410.003540,730.297791 391.853363,746.887390 
	C380.257172,757.486511 363.276031,757.898071 351.335876,747.467407 
	C335.943054,734.020691 320.425873,720.670715 305.719360,706.493652 
	C275.452332,677.316162 245.218277,648.075745 215.850830,618.001831 
	C187.271561,588.734924 159.807785,558.290466 138.541809,523.086243 
	C111.384064,478.128571 102.154198,429.772675 119.206505,379.346802 
	C139.029358,320.728058 180.344284,284.601715 241.971848,274.945068 
	C279.412506,269.078308 313.921265,279.868286 344.871918,301.425323 
	C353.159729,307.197754 360.751068,314.014893 368.356415,320.700195 
	C371.329773,323.313812 373.185394,323.787140 376.172424,320.785248 
	C392.076813,304.801666 410.333893,292.225006 431.395294,283.986115 
	C474.389740,267.167419 516.488098,270.402161 555.753357,293.702087 
	C606.121399,323.590424 629.721802,369.726837 630.942688,427.836487 
	C631.031067,432.042755 629.597046,433.243561 625.482666,433.181366 
	C611.154663,432.964783 596.820312,433.004944 582.490784,433.165527 
	C578.477722,433.210510 577.014343,432.073029 577.017822,427.763702 
	C577.035645,405.517181 571.256165,384.890656 557.940552,366.874451 
	C543.739868,347.660736 524.909180,335.284698 501.281433,330.702393 
	C464.573639,323.583405 434.099731,335.696045 408.430145,361.557190 
	C400.010559,370.039673 392.620209,379.533783 384.482544,388.308716 
	C375.654877,397.827728 367.333679,397.046906 358.925262,387.190613 
	C349.998901,376.727112 341.109589,366.084564 331.055511,356.758392 
	C301.835938,329.654266 256.002167,319.102753 217.400681,338.569000 
	C182.474075,356.182037 165.461334,385.556458 163.649078,423.975311 
	C162.170044,455.330292 174.239456,482.583557 191.501648,507.753326 
	C210.005295,534.733215 232.682755,558.208496 255.641144,581.335205 
	C282.484467,608.375305 309.653748,635.093689 336.837860,661.792603 
	C346.908203,671.683228 357.336578,681.216125 367.769623,690.727905 
	C372.906921,695.411499 374.027832,695.322021 378.955414,690.514709 
	C403.697754,666.376343 428.585449,642.381409 453.011353,617.925903 
	C474.263733,596.647827 494.990387,574.843872 515.893372,553.218140 
	C519.242920,549.752747 521.981323,545.632385 525.611572,542.527039 
	C527.729309,540.715576 531.056458,540.318115 533.839478,539.284546 
	C534.500244,541.515747 535.718323,543.743286 535.733032,545.978760 
	C535.843994,562.807678 535.718140,579.638123 535.666016,596.960144 
z"/>
<path fill="#FBFDFD" opacity="1.000000" stroke="none" 
	d="
M612.441101,312.458008 
	C612.380859,312.141235 612.259216,311.850098 612.000000,311.051147 
	C611.476562,310.153137 611.029297,309.788574 610.582092,309.424042 
	C610.582092,309.424042 610.655640,309.332794 610.670898,309.034180 
	C610.110657,308.173859 609.535217,307.612152 608.968872,307.036285 
	C608.978027,307.022156 608.952698,307.037231 608.908447,306.732056 
	C608.247437,305.948853 607.630676,305.470825 607.007385,304.996643 
	C607.000854,305.000458 607.008484,304.987183 607.035156,304.625549 
	C607.408386,302.876099 607.755005,301.488281 608.260681,299.992554 
	C608.419739,299.884583 608.753174,299.691498 609.118164,299.729034 
	C610.965271,298.807190 612.447388,297.847839 614.098083,296.779724 
	C614.266663,296.670929 614.621216,296.483246 614.871887,296.467834 
	C615.332581,296.206696 615.542603,295.960968 615.949158,295.618958 
	C616.145691,295.522675 616.562866,295.390137 616.933594,295.447815 
	C619.888733,294.038879 622.473206,292.572235 625.244995,290.979248 
	C625.432312,290.852905 625.855713,290.694672 626.241943,290.771362 
	C634.131287,287.629486 641.634460,284.410950 649.367737,281.090698 
	C650.590332,280.788269 651.582825,280.587524 652.874695,280.480530 
	C653.861755,280.196350 654.549438,279.818481 655.522949,279.379608 
	C656.192993,279.254181 656.577026,279.189758 657.260437,279.294312 
	C664.414246,277.798615 671.268738,276.133911 678.476685,274.385559 
	C679.547180,274.197357 680.264343,274.092773 681.255005,274.186707 
	C683.032410,273.951111 684.536133,273.516998 686.039917,273.082886 
	C686.039917,273.082886 686.032104,272.892853 686.384399,272.978760 
	C687.825134,273.039520 688.913574,273.014374 690.226318,273.164337 
	C691.342468,272.966827 692.234375,272.594177 693.126282,272.221558 
	C693.126282,272.221527 693.028381,272.016235 693.398071,272.085571 
	C696.505371,272.119019 699.242981,272.083069 702.333130,272.255554 
	C707.791382,272.319000 712.897095,272.173981 718.367310,272.020721 
	C719.458984,272.044342 720.186279,272.076202 721.231567,272.331573 
	C723.510315,272.900452 725.458130,273.381683 727.433838,273.570770 
	C756.791565,276.380646 784.408752,284.588470 809.914124,299.654175 
	C830.230347,311.654724 848.538025,325.973297 863.881042,344.044373 
	C880.736328,363.896515 894.205139,385.616638 902.242249,410.527618 
	C902.775879,412.181671 903.928162,413.636108 904.863281,415.432007 
	C905.163025,416.694824 905.392090,417.709076 905.542542,419.013367 
	C905.831177,419.970367 906.198486,420.637299 906.617310,421.584778 
	C906.748718,422.237091 906.828674,422.608887 906.770813,423.251953 
	C907.267944,425.449554 907.903015,427.375885 908.599976,429.585724 
	C908.750671,430.245850 908.839355,430.622467 908.804688,431.204651 
	C909.074951,431.963348 909.468567,432.516418 909.862244,433.069489 
	C909.862244,433.069489 909.934692,432.939026 909.872559,433.307098 
	C909.879761,434.448669 909.949097,435.222137 909.869751,436.202759 
	C910.106567,437.307495 910.492126,438.205078 910.899902,439.415405 
	C910.976746,440.142151 911.031250,440.556183 910.952148,441.165833 
	C911.158630,441.929443 911.498596,442.497375 911.838623,443.065338 
	C911.970398,443.443298 912.102173,443.821259 912.147583,444.829041 
	C912.041504,445.966095 912.021729,446.473297 911.836182,447.214691 
	C912.104675,448.302643 912.539001,449.156342 912.973328,450.010071 
	C913.064514,451.023041 913.155701,452.036011 913.128174,453.887085 
	C913.150696,467.898163 913.291992,481.071136 913.433289,494.244110 
	C913.370605,494.933685 913.307983,495.623291 913.004822,496.972229 
	C912.543518,498.775940 912.269653,499.912933 912.109802,501.065765 
	C908.454834,527.423645 900.290344,552.236572 886.693359,575.180481 
	C883.163208,581.137329 879.536194,587.036682 875.953735,592.962402 
	C875.673706,593.138672 875.446960,593.367676 874.873535,593.922241 
	C874.136841,594.880859 873.800049,595.566528 873.463196,596.252258 
	C873.463196,596.252258 873.360840,596.388306 873.201904,596.389343 
	C873.042908,596.390381 872.819153,596.751587 872.819153,596.751587 
	C872.819153,596.751587 873.124146,596.909912 873.124146,596.909912 
	C872.914307,597.213013 872.704468,597.516113 872.087158,597.984619 
	C871.432007,598.365845 871.184448,598.581787 870.662231,598.921387 
	C870.004883,599.726990 869.622192,600.408875 868.987915,601.312866 
	C864.199829,606.404114 859.854431,611.472961 855.053894,616.066162 
	C852.263062,618.736450 851.277466,621.506653 851.270630,625.290222 
	C851.226135,649.943970 851.099548,674.599731 850.648193,699.248352 
	C850.578247,703.068115 849.470947,707.310303 847.529114,710.575684 
	C840.260193,722.798706 825.373474,725.633972 812.208679,717.241028 
	C791.027954,703.737610 770.021240,689.958557 749.070251,676.100525 
	C745.597473,673.803528 742.297668,673.063538 738.297180,673.754517 
	C717.078125,677.419922 695.856689,677.169128 674.667908,673.442139 
	C655.359009,670.045898 636.892944,664.136292 619.531799,654.916687 
	C617.233215,653.695984 616.061096,652.504395 616.718750,649.481873 
	C621.485046,627.577209 613.935852,610.327637 596.380371,597.020447 
	C592.208618,593.858215 591.664673,590.150146 594.883118,585.927002 
	C596.593689,583.682434 598.757141,581.714661 600.117432,579.286499 
	C602.499207,575.034973 604.279053,575.541199 607.478699,578.760620 
	C629.110718,600.526123 654.989929,614.384033 685.403625,619.216797 
	C705.721008,622.445251 725.935486,621.621948 745.750305,615.801819 
	C750.194336,614.496521 753.658508,615.219604 757.359497,617.710815 
	C768.252258,625.043152 779.267883,632.194641 790.300354,639.316162 
	C791.887207,640.340515 793.832458,640.809692 795.611816,641.535828 
	C796.071899,639.533020 796.896790,637.536743 796.932678,635.526367 
	C797.158569,622.869019 797.048523,610.203308 797.466675,597.554138 
	C797.541443,595.292480 799.007935,592.410278 800.774963,590.978760 
	C812.746033,581.280579 823.347778,570.372681 832.201477,557.736572 
	C858.030640,520.872803 865.668762,480.436798 854.228149,437.072906 
	C844.817444,401.403107 823.559937,373.639526 792.946655,352.643372 
	C791.919067,351.868195 791.000488,351.400879 790.060181,350.951172 
	C790.038574,350.968811 790.040955,350.913086 789.918457,350.702728 
	C789.561340,350.235046 789.270081,350.111877 788.927979,350.094299 
	C788.933838,350.065704 788.886169,350.099335 788.759888,349.869659 
	C788.316833,349.514526 788.000000,349.389099 787.372253,349.127991 
	C784.712097,347.658875 782.362915,346.325348 779.899231,344.679321 
	C779.024109,344.130066 778.263489,343.893311 777.194214,343.528656 
	C776.247681,343.203278 775.609680,343.005829 774.886108,342.485779 
	C773.163269,341.485931 771.526001,340.808685 769.906555,340.116516 
	C769.924316,340.101562 769.915100,340.130920 769.743713,339.827637 
	C768.536255,339.237396 767.500183,338.950439 766.205811,338.598022 
	C765.625793,338.383209 765.304016,338.233917 764.804443,337.873688 
	C764.273987,337.600586 763.921326,337.538452 763.305542,337.419373 
	C762.700439,337.252930 762.358521,337.143433 761.806702,336.753052 
	C760.556030,336.189209 759.515320,335.906250 758.219482,335.554626 
	C757.640991,335.347382 757.317566,335.208862 756.815735,334.829224 
	C755.416748,334.375183 754.196045,334.162262 752.631897,333.850342 
	C750.913940,333.368011 749.539551,332.984680 747.978760,332.311005 
	C741.510620,330.944763 735.228882,329.868896 728.598511,328.789368 
	C727.556519,328.726379 726.863098,328.667053 725.967896,328.315125 
	C723.160767,327.983093 720.555298,327.943665 717.488525,327.920654 
	C712.680542,327.921661 708.333862,327.906250 703.656372,327.663879 
	C698.559631,327.993103 693.793579,328.549255 688.676697,329.203644 
	C687.367798,329.455078 686.409790,329.608276 685.140808,329.609497 
	C683.802856,329.768188 682.775940,330.078857 681.412231,330.485321 
	C680.388855,330.712433 679.702148,330.843719 678.752869,330.793945 
	C676.631714,331.358856 674.773193,332.104858 672.914673,332.850891 
	C672.914673,332.850891 672.999451,333.008240 672.704834,332.989807 
	C671.936829,332.974213 671.463440,332.977081 670.726685,332.809326 
	C663.919312,335.343353 657.375183,338.047974 650.575745,340.852966 
	C649.971130,341.061798 649.621765,341.170288 648.962891,341.275940 
	C648.043213,341.754883 647.432983,342.236694 646.581726,342.843201 
	C646.008057,343.109955 645.675354,343.251984 644.985962,343.318146 
	C643.396057,344.134491 642.162903,345.026703 640.723450,346.106781 
	C640.016357,346.537933 639.515564,346.781189 638.772034,346.817444 
	C637.381531,346.047974 636.233765,345.485565 634.915894,344.714020 
	C634.542847,344.006042 634.339905,343.507172 634.229309,342.750061 
	C633.539185,341.327515 632.756714,340.163177 631.826782,338.766724 
	C631.439941,338.040680 631.200623,337.546722 630.958252,336.681488 
	C628.926025,333.534973 626.896912,330.759705 624.867798,327.984467 
	C624.867798,327.984467 624.687195,327.730347 624.732239,327.247070 
	C624.205200,326.158539 623.633057,325.553284 622.916260,324.739685 
	C622.587097,324.247803 622.402649,323.964294 622.177856,323.356964 
	C621.383667,322.391724 620.629822,321.750305 619.876038,321.108887 
	C619.876038,321.108887 619.993042,320.998291 619.974609,320.705475 
	C619.002930,319.245758 618.049683,318.078857 616.906372,316.724640 
	C616.388916,316.448395 616.061523,316.359436 615.734192,316.270477 
	C615.632935,315.961945 615.486145,315.676819 615.371948,315.010071 
	C614.939819,314.089050 614.429626,313.572998 613.688354,312.911865 
	C613.118530,312.663849 612.779785,312.560944 612.441101,312.458008 
z"/>
<path fill="#F1F6FB" opacity="1.000000" stroke="none" 
	d="
M597.999634,470.381653 
	C590.833374,470.423187 584.164673,470.588409 577.502014,470.454102 
	C574.215820,470.387848 573.050842,471.731750 573.068420,474.877014 
	C573.109375,482.208984 573.195740,489.552216 572.845276,496.870850 
	C572.618652,501.604492 574.525391,502.804993 578.997070,502.787445 
	C612.829651,502.654510 646.663025,502.734131 680.496155,502.749329 
	C695.162720,502.755920 709.830322,502.675415 724.495056,502.845886 
	C727.827209,502.884613 729.476868,501.805481 730.825684,498.690796 
	C736.870483,484.731720 750.245544,478.619385 764.419067,483.011658 
	C777.848083,487.173187 785.759094,500.652130 783.137695,514.904602 
	C781.390564,524.403748 772.759338,532.807068 762.462463,535.034058 
	C751.697327,537.362305 740.434937,533.237976 734.586792,524.780457 
	C733.641846,523.413818 732.518982,522.033325 732.069519,520.487305 
	C730.836975,516.248169 727.941895,515.644653 724.022156,515.656250 
	C685.855957,515.769043 647.689331,515.732727 609.522827,515.728455 
	C599.022888,515.727295 588.519287,515.844116 578.024841,515.594055 
	C574.013245,515.498474 572.659424,516.906677 572.887024,520.807678 
	C573.158508,525.460083 573.088806,530.138672 573.006897,534.803162 
	C572.950684,538.004700 574.260132,539.243896 577.508423,539.146545 
	C583.586243,538.964355 589.673523,539.094116 595.756836,539.094116 
	C596.017944,539.565369 596.279053,540.036682 596.540161,540.507935 
	C592.402832,546.627869 589.005066,553.456116 583.968872,558.715271 
	C574.488403,568.615479 570.974548,579.852966 572.914429,593.156250 
	C573.152405,594.788330 573.073181,596.495850 572.927612,598.149658 
	C572.243835,605.916443 573.431702,611.214905 581.925293,615.758240 
	C597.373596,624.021973 597.421753,644.719360 588.688721,655.270264 
	C578.921692,667.070435 560.840088,668.710083 549.063599,658.121155 
	C537.365967,647.603149 537.375122,629.007263 549.105896,618.198730 
	C550.326965,617.073669 551.517700,615.609558 552.993530,615.120300 
	C559.225403,613.054199 559.520081,608.393372 559.468201,602.856445 
	C559.212280,575.527161 559.203003,548.195068 559.247375,520.864197 
	C559.253418,517.168274 558.440857,515.483887 554.262146,515.497131 
	C504.930237,515.653748 455.597778,515.691284 406.265747,515.603516 
	C402.106934,515.596130 399.884399,516.586243 397.974518,520.705139 
	C391.502289,534.662964 374.916931,539.915161 361.067993,532.957703 
	C348.610168,526.699158 343.169373,509.769775 349.568787,497.177338 
	C356.394165,483.746704 372.960510,478.218231 386.225739,485.980957 
	C391.077118,488.819946 394.686554,494.157288 398.113800,498.896393 
	C399.846039,501.291748 401.061279,502.798523 404.204834,502.793427 
	C454.204407,502.712463 504.204132,502.706329 554.203735,502.781342 
	C558.102417,502.787201 559.560486,501.325378 559.433228,497.483337 
	C559.195923,490.323700 558.991394,483.147064 559.235413,475.993256 
	C559.387024,471.547546 557.757019,470.296692 553.450745,470.315338 
	C519.618347,470.461884 485.785095,470.462067 451.952271,470.400482 
	C416.454712,470.335876 380.957001,470.203003 345.460358,469.955414 
	C341.214905,469.925781 338.634430,470.689209 336.787445,475.221832 
	C332.074219,486.788269 317.997986,493.197784 306.135376,489.931854 
	C292.403107,486.151184 283.813934,474.141022 285.397308,460.933960 
	C287.059937,447.065765 297.443176,437.309845 310.982849,436.894257 
	C323.353302,436.514557 332.434021,442.089081 337.286072,453.621033 
	C338.769958,457.147827 341.218353,457.093140 344.097595,457.093842 
	C383.763306,457.103088 423.429047,457.138031 463.094757,457.146179 
	C529.427124,457.159760 595.759521,457.122040 662.091614,457.250092 
	C666.291809,457.258209 668.509094,456.209595 670.331848,452.115631 
	C675.444946,440.631744 687.112244,434.527832 698.766235,436.465851 
	C711.236633,438.539642 719.951050,447.675598 721.488831,460.287537 
	C722.877258,471.674316 716.328247,482.698639 705.312256,487.518494 
	C692.428589,493.155518 677.855957,488.041748 670.851440,474.885468 
	C668.923828,471.264893 666.618835,470.369568 662.992615,470.380310 
	C641.495178,470.443970 619.997314,470.393768 597.999634,470.381653 
z"/>
<path fill="#5A87C1" opacity="1.000000" stroke="none" 
	d="
M870.936829,598.797668 
	C871.184448,598.581787 871.432007,598.365845 871.925293,598.208740 
	C869.387329,602.240234 867.335022,607.153870 863.674805,609.998962 
	C854.755249,616.932312 853.092224,625.602966 853.374268,636.276733 
	C853.918884,656.888977 853.241760,677.537354 852.899963,698.167847 
	C852.611328,715.590149 838.292603,727.088501 821.238464,723.529358 
	C817.905579,722.833801 814.555603,721.344727 811.675415,719.500366 
	C795.015808,708.831787 778.494934,697.946716 761.926575,687.135681 
	C757.612305,684.320679 753.155884,681.698608 749.018127,678.644531 
	C744.397522,675.234131 739.639160,675.637451 734.337097,676.515625 
	C711.035645,680.375000 687.837219,679.087585 665.036438,673.222900 
	C652.184692,669.917175 639.587463,665.568787 627.000488,661.319946 
	C623.295654,660.069336 619.941223,657.676331 616.570312,655.575623 
	C614.116516,654.046387 613.142151,652.078613 614.274292,648.822876 
	C619.127075,634.867371 615.474426,622.159058 607.200867,610.721436 
	C603.962463,606.244568 599.416687,602.630798 595.138000,599.012207 
	C590.772522,595.320068 589.686829,589.084106 593.254639,584.307556 
	C595.426147,581.400391 597.966492,578.760681 600.040344,575.790833 
	C602.318665,572.528259 604.138672,573.140930 606.896240,575.407654 
	C616.758911,583.515015 626.166321,592.492615 637.042114,598.961975 
	C647.909180,605.426270 660.033081,610.248413 672.164307,613.970886 
	C682.212524,617.054199 693.039124,618.490417 703.582642,618.850952 
	C717.662720,619.332397 731.887756,618.543335 745.442932,613.848511 
	C749.558716,612.422974 752.909180,612.548706 756.661804,615.021973 
	C767.619873,622.244080 778.790100,629.145203 789.916016,636.110046 
	C791.099670,636.851013 792.539978,637.181885 793.861206,637.703003 
	C794.264404,636.182190 794.997009,634.666016 795.018555,633.139893 
	C795.185730,621.311890 795.273621,609.481934 795.255493,597.652710 
	C795.249329,593.658264 796.813904,591.035339 800.029724,588.460632 
	C831.080444,563.600220 850.325928,531.709839 856.139771,492.151855 
	C859.452576,469.611328 856.528076,447.457947 848.765320,426.307434 
	C839.057190,399.856354 822.429626,378.017700 800.270508,360.508698 
	C797.304810,358.165344 794.170410,356.035431 791.077881,353.375000 
	C791.041565,352.943359 791.272461,352.672363 791.567993,352.729950 
	C792.260925,352.842133 792.658264,352.896698 793.055603,352.951263 
	C823.559937,373.639526 844.817444,401.403107 854.228149,437.072906 
	C865.668762,480.436798 858.030640,520.872803 832.201477,557.736572 
	C823.347778,570.372681 812.746033,581.280579 800.774963,590.978760 
	C799.007935,592.410278 797.541443,595.292480 797.466675,597.554138 
	C797.048523,610.203308 797.158569,622.869019 796.932678,635.526367 
	C796.896790,637.536743 796.071899,639.533020 795.611816,641.535828 
	C793.832458,640.809692 791.887207,640.340515 790.300354,639.316162 
	C779.267883,632.194641 768.252258,625.043152 757.359497,617.710815 
	C753.658508,615.219604 750.194336,614.496521 745.750305,615.801819 
	C725.935486,621.621948 705.721008,622.445251 685.403625,619.216797 
	C654.989929,614.384033 629.110718,600.526123 607.478699,578.760620 
	C604.279053,575.541199 602.499207,575.034973 600.117432,579.286499 
	C598.757141,581.714661 596.593689,583.682434 594.883118,585.927002 
	C591.664673,590.150146 592.208618,593.858215 596.380371,597.020447 
	C613.935852,610.327637 621.485046,627.577209 616.718750,649.481873 
	C616.061096,652.504395 617.233215,653.695984 619.531799,654.916687 
	C636.892944,664.136292 655.359009,670.045898 674.667908,673.442139 
	C695.856689,677.169128 717.078125,677.419922 738.297180,673.754517 
	C742.297668,673.063538 745.597473,673.803528 749.070251,676.100525 
	C770.021240,689.958557 791.027954,703.737610 812.208679,717.241028 
	C825.373474,725.633972 840.260193,722.798706 847.529114,710.575684 
	C849.470947,707.310303 850.578247,703.068115 850.648193,699.248352 
	C851.099548,674.599731 851.226135,649.943970 851.270630,625.290222 
	C851.277466,621.506653 852.263062,618.736450 855.053894,616.066162 
	C859.854431,611.472961 864.199829,606.404114 869.270264,601.194702 
	C870.181824,600.168823 870.559326,599.483276 870.936829,598.797668 
z"/>
<path fill="#AFCBEB" opacity="1.000000" stroke="none" 
	d="
M904.792664,415.183411 
	C903.928162,413.636108 902.775879,412.181671 902.242249,410.527618 
	C894.205139,385.616638 880.736328,363.896515 863.881042,344.044373 
	C848.538025,325.973297 830.230347,311.654724 809.914124,299.654175 
	C784.408752,284.588470 756.791565,276.380646 727.433838,273.570770 
	C725.458130,273.381683 723.510315,272.900452 721.675232,272.217773 
	C724.229553,271.878479 726.658142,271.876556 729.086792,271.874634 
	C757.924988,274.132385 784.804199,282.893829 809.795044,297.173645 
	C850.284302,320.309204 880.255676,353.114258 898.871704,396.048401 
	C899.597290,397.721832 900.190613,399.452637 900.961731,401.887146 
	C902.316162,406.806183 903.554443,410.994812 904.792664,415.183411 
z"/>
<path fill="#739ED0" opacity="1.000000" stroke="none" 
	d="
M876.298828,592.958252 
	C879.536194,587.036682 883.163208,581.137329 886.693359,575.180481 
	C900.290344,552.236572 908.454834,527.423645 912.109802,501.065765 
	C912.269653,499.912933 912.543518,498.775940 912.989014,497.318390 
	C912.899780,501.739044 912.993835,506.541962 912.205383,511.195374 
	C907.293701,540.182007 895.796387,566.471313 879.121643,590.573486 
	C878.483032,591.496521 877.478210,592.166260 876.298828,592.958252 
z"/>
<path fill="#739ED0" opacity="1.000000" stroke="none" 
	d="
M913.777588,494.132690 
	C913.291992,481.071136 913.150696,467.898163 913.168945,454.266846 
	C916.246155,457.019775 917.097473,460.827484 917.002136,465.091797 
	C916.825439,473.000397 917.068481,480.921204 916.755615,488.821838 
	C916.685669,490.586975 915.041321,492.289764 913.777588,494.132690 
z"/>
<path fill="#4F80BC" opacity="1.000000" stroke="none" 
	d="
M726.169617,328.607727 
	C726.863098,328.667053 727.556519,328.726379 728.979126,328.941528 
	C735.860535,330.265320 742.012817,331.433350 748.165100,332.601379 
	C749.539551,332.984680 750.913940,333.368011 752.849182,334.146790 
	C754.604675,334.718262 755.799377,334.894287 756.994080,335.070343 
	C757.317566,335.208862 757.640991,335.347382 758.407959,335.828979 
	C759.906433,336.459351 760.961548,336.746643 762.016602,337.033936 
	C762.358521,337.143433 762.700439,337.252930 763.488647,337.622284 
	C764.283997,337.949677 764.633118,338.017181 764.982239,338.084656 
	C765.304016,338.233917 765.625793,338.383209 766.349060,338.813293 
	C767.165894,339.403290 767.581177,339.712494 767.999878,340.256897 
	C768.003235,340.492157 768.012512,340.962555 768.012512,340.962555 
	C756.163330,337.783997 744.440247,333.947845 732.423584,331.642059 
	C723.369812,329.904785 713.939819,330.128387 704.345215,328.973450 
	C704.004578,328.275482 703.995911,328.083160 703.987183,327.890839 
	C708.333862,327.906250 712.680542,327.921661 717.871948,328.076050 
	C721.201050,328.345917 723.685303,328.476837 726.169617,328.607727 
z"/>
<path fill="#4F80BC" opacity="1.000000" stroke="none" 
	d="
M634.136963,343.008301 
	C634.339905,343.507172 634.542847,344.006042 634.942017,345.059998 
	C635.832092,347.730499 636.876038,348.883057 639.014771,347.024445 
	C639.515564,346.781189 640.016357,346.537933 641.059326,346.095886 
	C642.848572,345.062714 644.095642,344.228363 645.342712,343.394012 
	C645.675354,343.251984 646.008057,343.109955 646.894897,342.872803 
	C648.056824,342.278076 648.664612,341.778442 649.272461,341.278809 
	C649.621765,341.170288 649.971130,341.061798 650.946899,340.863220 
	C658.045532,338.175385 664.517761,335.577637 670.989990,332.979919 
	C671.463440,332.977081 671.936829,332.974213 672.752930,333.065125 
	C670.223816,334.588470 667.377991,336.073395 664.475098,337.436859 
	C656.699280,341.088989 648.802002,344.498505 641.150330,348.391998 
	C637.437317,350.281342 635.162109,350.193176 633.233215,346.150421 
	C630.827393,341.108154 627.993103,336.270355 625.698181,331.096497 
	C627.688782,332.916718 629.325073,334.984741 630.961304,337.052765 
	C631.200623,337.546722 631.439941,338.040680 631.859009,339.101868 
	C632.738159,340.782227 633.437561,341.895264 634.136963,343.008301 
z"/>
<path fill="#4F80BC" opacity="1.000000" stroke="none" 
	d="
M616.562866,295.390137 
	C616.562866,295.390137 616.145691,295.522675 615.704102,295.646301 
	C614.933228,295.903900 614.719482,296.141663 614.621216,296.483246 
	C614.621216,296.483246 614.266663,296.670929 613.759888,296.759583 
	C612.802979,296.853241 612.352844,296.858246 611.902649,296.863281 
	C613.150574,295.632446 614.184570,293.928284 615.682739,293.250946 
	C622.979736,289.951752 630.400879,286.927124 637.922119,284.156921 
	C633.996033,286.570587 629.925903,288.632660 625.855713,290.694702 
	C625.855713,290.694672 625.432312,290.852905 624.885254,290.985779 
	C621.746399,292.542480 619.154602,293.966309 616.562866,295.390137 
z"/>
<path fill="#4F80BC" opacity="1.000000" stroke="none" 
	d="
M679.015503,330.975037 
	C679.702148,330.843719 680.388855,330.712433 681.723999,330.618774 
	C683.398865,330.358093 684.425354,330.059784 685.451782,329.761475 
	C686.409790,329.608276 687.367798,329.455078 689.133789,329.273621 
	C693.664917,329.216248 697.387939,329.187103 701.111023,329.157959 
	C700.625732,329.582916 700.181152,330.316223 699.648987,330.386566 
	C691.956665,331.403839 684.252563,332.332092 676.488770,332.860962 
	C677.289307,331.951813 678.152405,331.463409 679.015503,330.975037 
z"/>
<path fill="#739ED0" opacity="1.000000" stroke="none" 
	d="
M904.863281,415.432007 
	C903.554443,410.994812 902.316162,406.806183 901.104126,402.231415 
	C904.208191,411.369598 907.285950,420.893951 909.926270,430.722656 
	C909.301880,431.017670 909.114990,431.008362 908.928040,430.999084 
	C908.839355,430.622467 908.750671,430.245850 908.651794,429.208557 
	C908.064026,426.692139 907.486389,424.836395 906.908691,422.980682 
	C906.828674,422.608887 906.748718,422.237091 906.671143,421.291443 
	C906.322815,420.052795 905.971985,419.388031 905.621155,418.723297 
	C905.392090,417.709076 905.163025,416.694824 904.863281,415.432007 
z"/>
<path fill="#AFCBEB" opacity="1.000000" stroke="none" 
	d="
M626.241943,290.771362 
	C629.925903,288.632660 633.996033,286.570587 638.286743,284.276062 
	C639.397888,283.728333 640.288574,283.413055 641.810425,283.009583 
	C642.974182,282.643372 643.506714,282.365387 644.039246,282.087433 
	C644.834045,281.814362 645.628784,281.541321 647.062866,281.196838 
	C648.180603,281.147766 648.659119,281.170074 649.137634,281.192383 
	C641.634460,284.410950 634.131287,287.629486 626.241943,290.771362 
z"/>
<path fill="#AFCBEB" opacity="1.000000" stroke="none" 
	d="
M678.123230,274.469177 
	C671.268738,276.133911 664.414246,277.798615 657.450806,279.043457 
	C658.237488,278.108826 659.133118,277.594025 660.028809,277.079224 
	C660.430115,277.005280 660.831482,276.931335 661.909912,276.857147 
	C664.739258,276.244995 666.891479,275.633057 669.043762,275.021149 
	C669.439697,274.959229 669.835693,274.897308 670.822632,274.833008 
	C671.954712,274.586700 672.495789,274.342773 673.036926,274.098816 
	C674.044067,273.989044 675.051208,273.879272 676.761597,273.893799 
	C677.684326,274.168488 677.903809,274.318817 678.123230,274.469177 
z"/>
<path fill="#5A87C1" opacity="1.000000" stroke="none" 
	d="
M774.971680,342.808350 
	C775.609680,343.005829 776.247681,343.203278 777.351379,343.783356 
	C778.549255,344.441254 779.281494,344.716553 780.013672,344.991852 
	C782.362915,346.325348 784.712097,347.658875 787.503906,349.353882 
	C788.259766,349.843414 788.572937,349.971375 788.886169,350.099335 
	C788.886169,350.099335 788.933838,350.065704 789.032898,350.320129 
	C789.380371,350.833893 789.683411,350.946747 790.040955,350.913086 
	C790.040955,350.913086 790.038574,350.968811 790.155151,351.199402 
	C790.605347,351.844116 790.938904,352.258240 791.272461,352.672363 
	C791.272461,352.672363 791.041565,352.943359 790.925659,353.079193 
	C785.669617,350.286682 780.529480,347.358368 775.228516,343.901733 
	C775.035706,343.185028 775.003723,342.996674 774.971680,342.808350 
z"/>
<path fill="#AFCBEB" opacity="1.000000" stroke="none" 
	d="
M718.002869,272.028961 
	C712.897095,272.173981 707.791382,272.319000 702.351379,272.015533 
	C702.017151,271.567047 702.064758,271.088043 702.064758,271.088043 
	C707.049316,271.085785 712.033875,271.083496 717.501343,271.312927 
	C717.984314,271.544647 718.002869,272.028961 718.002869,272.028961 
z"/>
<path fill="#4F80BC" opacity="1.000000" stroke="none" 
	d="
M659.759399,276.895233 
	C659.133118,277.594025 658.237488,278.108826 657.151489,278.874481 
	C656.577026,279.189758 656.192993,279.254181 655.224426,279.299133 
	C653.951721,279.648682 653.263550,280.017731 652.575317,280.386810 
	C651.582825,280.587524 650.590332,280.788269 649.367737,281.090698 
	C648.659119,281.170074 648.180603,281.147766 647.348389,281.062683 
	C651.159729,279.570343 655.324890,278.140808 659.759399,276.895233 
z"/>
<path fill="#B9D3EF" opacity="1.000000" stroke="none" 
	d="
M701.467102,329.106384 
	C697.387939,329.187103 693.664917,329.216248 689.484741,329.175415 
	C693.793579,328.549255 698.559631,327.993103 703.656372,327.663879 
	C703.995911,328.083160 704.004578,328.275482 703.996277,328.756042 
	C703.260620,329.047791 702.541870,329.051300 701.467102,329.106384 
z"/>
<path fill="#4F80BC" opacity="1.000000" stroke="none" 
	d="
M718.367310,272.020721 
	C718.002869,272.028961 717.984314,271.544647 717.964539,271.303101 
	C721.526001,271.127136 725.107239,271.192780 728.887634,271.566528 
	C726.658142,271.876556 724.229553,271.878479 721.357239,271.994232 
	C720.186279,272.076202 719.458984,272.044342 718.367310,272.020721 
z"/>
<path fill="#AFCBEB" opacity="1.000000" stroke="none" 
	d="
M630.958252,336.681488 
	C629.325073,334.984741 627.688782,332.916718 625.742798,330.723999 
	C625.432983,330.599274 625.307739,330.263519 625.220215,329.839386 
	C624.918884,329.144409 624.705017,328.873596 624.491150,328.602783 
	C624.464966,328.395050 624.488159,328.192993 624.714233,327.990540 
	C626.896912,330.759705 628.926025,333.534973 630.958252,336.681488 
z"/>
<path fill="#4F80BC" opacity="1.000000" stroke="none" 
	d="
M701.734619,270.877289 
	C702.064758,271.088043 702.017151,271.567047 701.998901,271.807068 
	C699.242981,272.083069 696.505371,272.119019 693.337646,271.989258 
	C695.739868,271.437866 698.572205,271.052185 701.734619,270.877289 
z"/>
<path fill="#739ED0" opacity="1.000000" stroke="none" 
	d="
M910.018433,435.995605 
	C909.949097,435.222137 909.879761,434.448669 909.947144,433.309998 
	C910.833313,435.428253 911.582764,437.911713 911.953491,440.697510 
	C911.574646,440.999847 911.085754,440.970184 911.085754,440.970184 
	C911.031250,440.556183 910.976746,440.142151 910.947327,439.079437 
	C910.654419,437.619019 910.336426,436.807312 910.018433,435.995605 
z"/>
<path fill="#4F80BC" opacity="1.000000" stroke="none" 
	d="
M668.763550,274.825439 
	C666.891479,275.633057 664.739258,276.244995 662.205078,276.775757 
	C664.043213,276.006317 666.263306,275.318024 668.763550,274.825439 
z"/>
<path fill="#B9D3EF" opacity="1.000000" stroke="none" 
	d="
M774.886108,342.485779 
	C775.003723,342.996674 775.035706,343.185028 775.002930,343.652740 
	C774.938049,343.932098 774.573547,343.904419 774.276733,343.594421 
	C773.638123,343.197266 773.296204,343.110077 772.954346,343.022888 
	C772.954346,343.022888 772.568848,342.932922 772.232910,342.575928 
	C771.227600,341.523132 770.558167,340.827301 769.888794,340.131439 
	C771.526001,340.808685 773.163269,341.485931 774.886108,342.485779 
z"/>
<path fill="#AFCBEB" opacity="1.000000" stroke="none" 
	d="
M678.752869,330.793915 
	C678.152405,331.463409 677.289307,331.951813 676.210510,332.652649 
	C675.220276,332.919861 674.445801,332.974609 673.292969,332.940125 
	C674.773193,332.104858 676.631714,331.358856 678.752869,330.793915 
z"/>
<path fill="#AFCBEB" opacity="1.000000" stroke="none" 
	d="
M608.101624,300.100494 
	C607.755005,301.488281 607.408386,302.876099 606.749939,304.550110 
	C605.686768,304.222443 604.935425,303.608612 604.184082,302.994781 
	C604.667053,302.169037 605.150024,301.343323 606.196411,300.322693 
	C607.207092,300.118683 607.654358,300.109589 608.101624,300.100494 
z"/>
<path fill="#AFCBEB" opacity="1.000000" stroke="none" 
	d="
M685.645813,272.914612 
	C684.536133,273.516998 683.032410,273.951111 681.239075,273.916656 
	C680.960022,273.268097 680.970520,273.088104 680.981079,272.908081 
	C682.404602,272.854187 683.828186,272.800293 685.645813,272.914612 
z"/>
<path fill="#4F80BC" opacity="1.000000" stroke="none" 
	d="
M604.001831,303.195007 
	C604.935425,303.608612 605.686768,304.222443 606.723267,304.911743 
	C607.008484,304.987183 607.000854,305.000458 607.022705,305.278381 
	C607.149658,305.917450 607.254700,306.278595 607.230530,306.768982 
	C607.101318,306.898224 606.843018,307.156708 606.843018,307.156708 
	C605.835205,305.902893 604.827454,304.649078 604.001831,303.195007 
z"/>
<path fill="#AFCBEB" opacity="1.000000" stroke="none" 
	d="
M611.732910,296.956848 
	C612.352844,296.858246 612.802979,296.853241 613.591309,296.868347 
	C612.447388,297.847839 610.965271,298.807190 609.270935,299.473633 
	C609.774048,298.519806 610.489380,297.858948 611.204651,297.198090 
	C611.204651,297.198090 611.563110,297.050385 611.732910,296.956848 
z"/>
<path fill="#4F80BC" opacity="1.000000" stroke="none" 
	d="
M610.836914,297.173309 
	C610.489380,297.858948 609.774048,298.519806 608.905945,299.436096 
	C608.753174,299.691498 608.419739,299.884583 608.260681,299.992554 
	C607.654358,300.109589 607.207092,300.118683 606.422424,300.126099 
	C607.546387,299.132446 609.007751,298.140503 610.836914,297.173309 
z"/>
<path fill="#4F80BC" opacity="1.000000" stroke="none" 
	d="
M622.218201,323.680786 
	C622.402649,323.964294 622.587097,324.247803 622.887695,325.078552 
	C623.021851,326.077728 623.039795,326.529602 623.057739,326.981506 
	C622.072266,325.845306 621.086792,324.709137 620.388367,323.300934 
	C621.189697,323.246216 621.703918,323.463501 622.218201,323.680786 
z"/>
<path fill="#4F80BC" opacity="1.000000" stroke="none" 
	d="
M680.721436,272.757751 
	C680.970520,273.088104 680.960022,273.268097 680.965454,273.718140 
	C680.264343,274.092773 679.547180,274.197357 678.476685,274.385559 
	C677.903809,274.318817 677.684326,274.168488 677.130249,273.800110 
	C678.017700,273.257202 679.239685,272.932281 680.721436,272.757751 
z"/>
<path fill="#AFCBEB" opacity="1.000000" stroke="none" 
	d="
M617.096436,316.911926 
	C618.049683,318.078857 619.002930,319.245758 619.919495,320.763489 
	C619.137329,320.506134 618.391907,319.897980 617.425171,318.744385 
	C617.168030,317.769928 617.132263,317.340942 617.096436,316.911926 
z"/>
<path fill="#AFCBEB" opacity="1.000000" stroke="none" 
	d="
M692.764771,272.063354 
	C692.234375,272.594177 691.342468,272.966827 690.248047,272.917938 
	C690.045593,272.496429 690.040649,272.001709 690.040649,272.001709 
	C690.828186,271.969513 691.615662,271.937347 692.764771,272.063354 
z"/>
<path fill="#5A87C1" opacity="1.000000" stroke="none" 
	d="
M769.906555,340.116516 
	C770.558167,340.827301 771.227600,341.523132 772.053101,342.493256 
	C770.979919,342.310394 769.750671,341.853241 768.266968,341.179321 
	C768.012512,340.962555 768.003235,340.492157 768.321167,340.275208 
	C769.064453,340.082489 769.489746,340.106689 769.915100,340.130920 
	C769.915100,340.130920 769.924316,340.101562 769.906555,340.116516 
z"/>
<path fill="#AFCBEB" opacity="1.000000" stroke="none" 
	d="
M913.111206,449.650574 
	C912.539001,449.156342 912.104675,448.302643 912.101074,447.223816 
	C912.708374,446.996307 912.885010,446.993866 913.061646,446.991455 
	C913.124084,447.757996 913.186584,448.524506 913.111206,449.650574 
z"/>
<path fill="#AFCBEB" opacity="1.000000" stroke="none" 
	d="
M622.177856,323.356964 
	C621.703918,323.463501 621.189697,323.246216 620.404175,322.946442 
	C620.021851,322.478363 619.910767,322.092773 619.837891,321.408020 
	C620.629822,321.750305 621.383667,322.391724 622.177856,323.356964 
z"/>
<path fill="#739ED0" opacity="1.000000" stroke="none" 
	d="
M913.198364,446.804016 
	C912.885010,446.993866 912.708374,446.996307 912.266846,446.989624 
	C912.021729,446.473297 912.041504,445.966095 912.232300,445.117798 
	C912.713867,445.389954 913.024475,446.003265 913.198364,446.804016 
z"/>
<path fill="#AFCBEB" opacity="1.000000" stroke="none" 
	d="
M608.959717,307.050415 
	C609.535217,307.612152 610.110657,308.173859 610.615784,309.054199 
	C610.217102,309.323334 609.888733,309.273865 609.331665,308.764709 
	C609.055176,307.886780 609.007446,307.468597 608.959717,307.050415 
z"/>
<path fill="#AFCBEB" opacity="1.000000" stroke="none" 
	d="
M910.952148,441.165833 
	C911.085754,440.970184 911.574646,440.999847 911.819397,441.009399 
	C912.089539,441.487549 912.114990,441.956116 911.989502,442.744995 
	C911.498596,442.497375 911.158630,441.929443 910.952148,441.165833 
z"/>
<path fill="#4F80BC" opacity="1.000000" stroke="none" 
	d="
M672.871948,273.915833 
	C672.495789,274.342773 671.954712,274.586700 671.112610,274.753052 
	C671.443420,274.361237 672.075256,274.047058 672.871948,273.915833 
z"/>
<path fill="#4F80BC" opacity="1.000000" stroke="none" 
	d="
M612.394165,312.800751 
	C612.779785,312.560944 613.118530,312.663849 613.713928,313.228821 
	C614.019775,314.111053 614.068909,314.531219 614.118042,314.951385 
	C613.527771,314.348755 612.937500,313.746124 612.394165,312.800751 
z"/>
<path fill="#AFCBEB" opacity="1.000000" stroke="none" 
	d="
M908.804688,431.204651 
	C909.114990,431.008362 909.301880,431.017670 909.769531,431.023499 
	C910.077454,431.486481 910.104675,431.952942 909.997070,432.744446 
	C909.468567,432.516418 909.074951,431.963348 908.804688,431.204651 
z"/>
<path fill="#AFCBEB" opacity="1.000000" stroke="none" 
	d="
M614.365784,315.015015 
	C614.068909,314.531219 614.019775,314.111053 613.945068,313.373932 
	C614.429626,313.572998 614.939819,314.089050 615.281494,314.786438 
	C614.946533,315.004761 614.780029,315.041687 614.365784,315.015015 
z"/>
<path fill="#4F80BC" opacity="1.000000" stroke="none" 
	d="
M616.906372,316.724640 
	C617.132263,317.340942 617.168030,317.769928 617.218689,318.523438 
	C616.666992,318.212006 616.100525,317.576019 615.634094,316.605286 
	C616.061523,316.359436 616.388916,316.448395 616.906372,316.724640 
z"/>
<path fill="#739ED0" opacity="1.000000" stroke="none" 
	d="
M873.785767,596.237305 
	C873.800049,595.566528 874.136841,594.880859 874.779602,594.146667 
	C874.759827,594.806213 874.434082,595.514282 873.785767,596.237305 
z"/>
<path fill="#4F80BC" opacity="1.000000" stroke="none" 
	d="
M643.860657,281.925323 
	C643.506714,282.365387 642.974182,282.643372 642.133911,282.864410 
	C642.444824,282.459381 643.063416,282.111298 643.860657,281.925323 
z"/>
<path fill="#AFCBEB" opacity="1.000000" stroke="none" 
	d="
M623.304138,327.132080 
	C623.039795,326.529602 623.021851,326.077728 623.032471,325.286926 
	C623.633057,325.553284 624.205200,326.158539 624.719482,327.091705 
	C624.291321,327.373962 623.920898,327.328308 623.304138,327.132080 
z"/>
<path fill="#4F80BC" opacity="1.000000" stroke="none" 
	d="
M689.688110,271.933502 
	C690.040649,272.001709 690.045593,272.496429 690.023804,272.742828 
	C688.913574,273.014374 687.825134,273.039520 686.372681,272.884399 
	C687.117615,272.424530 688.226624,272.144928 689.688110,271.933502 
z"/>
<path fill="#4F80BC" opacity="1.000000" stroke="none" 
	d="
M608.968872,307.036285 
	C609.007446,307.468597 609.055176,307.886780 609.113892,308.622192 
	C608.458801,308.526245 607.792725,308.113068 606.984863,307.428314 
	C606.843018,307.156708 607.101318,306.898224 607.490906,306.858276 
	C608.237915,306.891296 608.595276,306.964264 608.952698,307.037231 
	C608.952698,307.037231 608.978027,307.022156 608.968872,307.036285 
z"/>
<path fill="#AFCBEB" opacity="1.000000" stroke="none" 
	d="
M610.553467,309.738770 
	C611.029297,309.788574 611.476562,310.153137 611.911499,310.830322 
	C611.441162,310.779785 610.983032,310.416626 610.553467,309.738770 
z"/>
<path fill="#739ED0" opacity="1.000000" stroke="none" 
	d="
M873.252808,596.861572 
	C873.124146,596.909912 872.819153,596.751587 872.819153,596.751587 
	C872.819153,596.751587 873.042908,596.390381 873.174072,596.469849 
	C873.305237,596.549255 873.381409,596.813293 873.252808,596.861572 
z"/>
<path fill="#5A87C1" opacity="1.000000" stroke="none" 
	d="
M773.153198,343.171875 
	C773.296204,343.110077 773.638123,343.197266 774.105225,343.531494 
	C773.910950,343.677155 773.618164,343.524597 773.153198,343.171875 
z"/>
<path fill="#4F80BC" opacity="1.000000" stroke="none" 
	d="
M624.498474,328.867065 
	C624.705017,328.873596 624.918884,329.144409 625.141174,329.678650 
	C624.934998,329.671814 624.720398,329.401611 624.498474,328.867065 
z"/>
<path fill="#AFCBEB" opacity="1.000000" stroke="none" 
	d="
M670.726685,332.809326 
	C664.517761,335.577637 658.045532,338.175385 651.202148,340.762848 
	C657.375183,338.047974 663.919312,335.343353 670.726685,332.809326 
z"/>
<path fill="#B9D3EF" opacity="1.000000" stroke="none" 
	d="
M747.978760,332.311005 
	C742.012817,331.433350 735.860535,330.265320 729.327637,328.945190 
	C735.228882,329.868896 741.510620,330.944763 747.978760,332.311005 
z"/>
<path fill="#AFCBEB" opacity="1.000000" stroke="none" 
	d="
M616.933594,295.447815 
	C619.154602,293.966309 621.746399,292.542480 624.697876,291.112152 
	C622.473206,292.572235 619.888733,294.038879 616.933594,295.447815 
z"/>
<path fill="#B9D3EF" opacity="1.000000" stroke="none" 
	d="
M725.967896,328.315125 
	C723.685303,328.476837 721.201050,328.345917 718.333313,328.059631 
	C720.555298,327.943665 723.160767,327.983093 725.967896,328.315125 
z"/>
<path fill="#AFCBEB" opacity="1.000000" stroke="none" 
	d="
M906.770813,423.251953 
	C907.486389,424.836395 908.064026,426.692139 908.589844,428.925049 
	C907.903015,427.375885 907.267944,425.449554 906.770813,423.251953 
z"/>
<path fill="#AFCBEB" opacity="1.000000" stroke="none" 
	d="
M638.772034,346.817444 
	C636.876038,348.883057 635.832092,347.730499 635.112061,345.269104 
	C636.233765,345.485565 637.381531,346.047974 638.772034,346.817444 
z"/>
<path fill="#AFCBEB" opacity="1.000000" stroke="none" 
	d="
M644.985962,343.318146 
	C644.095642,344.228363 642.848572,345.062714 641.265625,345.907959 
	C642.162903,345.026703 643.396057,344.134491 644.985962,343.318146 
z"/>
<path fill="#AFCBEB" opacity="1.000000" stroke="none" 
	d="
M634.229309,342.750061 
	C633.437561,341.895264 632.738159,340.782227 632.006470,339.333984 
	C632.756714,340.163177 633.539185,341.327515 634.229309,342.750061 
z"/>
<path fill="#AFCBEB" opacity="1.000000" stroke="none" 
	d="
M685.140808,329.609497 
	C684.425354,330.059784 683.398865,330.358093 682.060669,330.522980 
	C682.775940,330.078857 683.802856,329.768188 685.140808,329.609497 
z"/>
<path fill="#B9D3EF" opacity="1.000000" stroke="none" 
	d="
M756.815735,334.829224 
	C755.799377,334.894287 754.604675,334.718262 753.192688,334.245789 
	C754.196045,334.162262 755.416748,334.375183 756.815735,334.829224 
z"/>
<path fill="#B9D3EF" opacity="1.000000" stroke="none" 
	d="
M761.806702,336.753052 
	C760.961548,336.746643 759.906433,336.459351 758.662964,335.897675 
	C759.515320,335.906250 760.556030,336.189209 761.806702,336.753052 
z"/>
<path fill="#B9D3EF" opacity="1.000000" stroke="none" 
	d="
M769.743713,339.827637 
	C769.489746,340.106689 769.064453,340.082489 768.317810,340.039978 
	C767.581177,339.712494 767.165894,339.403290 766.607300,338.878815 
	C767.500183,338.950439 768.536255,339.237396 769.743713,339.827637 
z"/>
<path fill="#AFCBEB" opacity="1.000000" stroke="none" 
	d="
M909.869751,436.202759 
	C910.336426,436.807312 910.654419,437.619019 910.925049,438.766724 
	C910.492126,438.205078 910.106567,437.307495 909.869751,436.202759 
z"/>
<path fill="#B9D3EF" opacity="1.000000" stroke="none" 
	d="
M791.567993,352.729919 
	C790.938904,352.258240 790.605347,351.844116 790.176758,351.181763 
	C791.000488,351.400879 791.919067,351.868195 792.946655,352.643372 
	C792.658264,352.896698 792.260925,352.842133 791.567993,352.729919 
z"/>
<path fill="#AFCBEB" opacity="1.000000" stroke="none" 
	d="
M905.542542,419.013367 
	C905.971985,419.388031 906.322815,420.052795 906.619690,421.010895 
	C906.198486,420.637299 905.831177,419.970367 905.542542,419.013367 
z"/>
<path fill="#AFCBEB" opacity="1.000000" stroke="none" 
	d="
M652.874695,280.480530 
	C653.263550,280.017731 653.951721,279.648682 654.938477,279.360107 
	C654.549438,279.818481 653.861755,280.196350 652.874695,280.480530 
z"/>
<path fill="#B9D3EF" opacity="1.000000" stroke="none" 
	d="
M779.899231,344.679321 
	C779.281494,344.716553 778.549255,344.441254 777.659912,343.911255 
	C778.263489,343.893311 779.024109,344.130066 779.899231,344.679321 
z"/>
<path fill="#AFCBEB" opacity="1.000000" stroke="none" 
	d="
M648.962891,341.275940 
	C648.664612,341.778442 648.056824,342.278076 647.135864,342.748108 
	C647.432983,342.236694 648.043213,341.754883 648.962891,341.275940 
z"/>
<path fill="#739ED0" opacity="1.000000" stroke="none" 
	d="
M870.662231,598.921387 
	C870.559326,599.483276 870.181824,600.168823 869.521912,600.972595 
	C869.622192,600.408875 870.004883,599.726990 870.662231,598.921387 
z"/>
<path fill="#AFCBEB" opacity="1.000000" stroke="none" 
	d="
M608.908447,306.732056 
	C608.595276,306.964264 608.237915,306.891296 607.620117,306.729065 
	C607.254700,306.278595 607.149658,305.917450 607.029297,305.274536 
	C607.630676,305.470825 608.247437,305.948853 608.908447,306.732056 
z"/>
<path fill="#B9D3EF" opacity="1.000000" stroke="none" 
	d="
M789.918457,350.702728 
	C789.683411,350.946747 789.380371,350.833893 789.027039,350.348724 
	C789.270081,350.111877 789.561340,350.235046 789.918457,350.702728 
z"/>
<path fill="#B9D3EF" opacity="1.000000" stroke="none" 
	d="
M788.759888,349.869659 
	C788.572937,349.971375 788.259766,349.843414 787.814819,349.489532 
	C788.000000,349.389099 788.316833,349.514526 788.759888,349.869659 
z"/>
<path fill="#B9D3EF" opacity="1.000000" stroke="none" 
	d="
M764.804443,337.873688 
	C764.633118,338.017181 764.283997,337.949677 763.751770,337.679260 
	C763.921326,337.538452 764.273987,337.600586 764.804443,337.873688 
z"/>
<path fill="#AFCBEB" opacity="1.000000" stroke="none" 
	d="
M614.871887,296.467834 
	C614.719482,296.141663 614.933228,295.903900 615.507568,295.742584 
	C615.542603,295.960968 615.332581,296.206696 614.871887,296.467834 
z"/>
</svg>