<?xml version="1.0" encoding="UTF-8"?>
<svg version="1.1" xmlns="http://www.w3.org/2000/svg" width="700" height="700">
<path d="M0 0 C231 0 462 0 700 0 C700 231 700 462 700 700 C469 700 238 700 0 700 C0 469 0 238 0 0 Z " fill="#0651B2" transform="translate(0,0)"/>
<path d="M0 0 C10.33811871 8.21501694 18.73853934 18.01405901 26.0625 29 C26.16374382 32.64477753 24.62585274 35.0278352 22.4375 37.8125 C17.85996403 41.99687337 13.09843111 42.45810618 7.0546875 42.21875 C0.38782456 40.81588356 -3.56675145 34.91860043 -7.62109375 29.8671875 C-12.23598203 24.19250106 -17.84689731 20.14226546 -24.5625 17.25 C-25.44164062 16.86328125 -26.32078125 16.4765625 -27.2265625 16.078125 C-28.12117188 15.72234375 -29.01578125 15.3665625 -29.9375 15 C-30.82824219 14.63132813 -31.71898437 14.26265625 -32.63671875 13.8828125 C-45.07945686 10.55493225 -59.23102649 12.09554171 -70.34375 18.35546875 C-72.65488425 19.79222387 -74.79383076 21.3250037 -76.9375 23 C-77.55367187 23.47824219 -78.16984375 23.95648438 -78.8046875 24.44921875 C-87.04907584 31.72260135 -92.34709753 44.1279898 -93.2734375 54.91015625 C-94.01819535 88.88006767 -69.90245849 112.77800469 -48.01708984 135.82989502 C-42.61715297 141.46486671 -37.1004729 146.98441841 -31.57348633 152.49438477 C-29.47292896 154.58950092 -27.37788126 156.6900231 -25.28320312 158.79101562 C-23.91959189 160.15396713 -22.55567107 161.51660897 -21.19140625 162.87890625 C-20.57979141 163.49254532 -19.96817657 164.10618439 -19.33802795 164.73841858 C-15.59613707 168.46037343 -11.73496557 171.98997281 -7.73002625 175.42765808 C-5.08337874 177.74920558 -2.64846316 180.23213596 -0.1875 182.75 C4.08098205 187.31429543 4.08098205 187.31429543 9.0625 191 C12.8255194 190.6128763 14.54328404 188.84909998 17.1015625 186.18359375 C17.84664062 185.41982422 18.59171875 184.65605469 19.359375 183.86914062 C20.12765625 183.06669922 20.8959375 182.26425781 21.6875 181.4375 C23.21681619 179.84848459 24.75045022 178.26360966 26.2890625 176.68359375 C27.30347412 175.62483032 27.30347412 175.62483032 28.33837891 174.54467773 C30.0625 173 30.0625 173 32.0625 173 C32.0625 172.34 32.0625 171.68 32.0625 171 C33.35986328 169.72167969 33.35986328 169.72167969 35.2578125 168.171875 C40.87679006 163.39240092 46.0346125 158.17788569 51.23730469 152.95556641 C52.95133467 151.23612162 54.6707171 149.52215693 56.390625 147.80859375 C57.4873004 146.71125844 58.58366603 145.61361345 59.6796875 144.515625 C60.44682571 143.75152313 60.44682571 143.75152313 61.22946167 142.97198486 C63.45251316 140.73416681 65.30498245 138.63627632 67.0625 136 C67.7225 136 68.3825 136 69.0625 136 C69.289375 135.443125 69.51625 134.88625 69.75 134.3125 C71.44822802 131.32038397 73.57014196 129.38399465 76.0625 127 C76.5354248 126.33967773 77.00834961 125.67935547 77.49560547 124.99902344 C80.57790381 121.08292273 82.80692673 119.21786203 87.80517578 118.35058594 C92.23199369 118.11414177 96.63778341 118.30062914 101.0625 118.5 C102.61579347 118.54018535 104.16918713 118.57667727 105.72265625 118.609375 C109.50510336 118.69696981 113.28268564 118.83466492 117.0625 119 C115.79884915 121.71333816 114.45106385 123.9155757 112.48828125 126.171875 C111.98490234 126.75453125 111.48152344 127.3371875 110.96289062 127.9375 C110.43888672 128.535625 109.91488281 129.13375 109.375 129.75 C108.87033203 130.33265625 108.36566406 130.9153125 107.84570312 131.515625 C106.25629855 133.34816226 104.65963334 135.17419697 103.0625 137 C102.49112305 137.65750244 101.91974609 138.31500488 101.33105469 138.99243164 C90.74813964 151.14931371 79.50556401 162.65672548 68.125 174.0625 C67.58715881 174.60292938 67.04931763 175.14335876 66.49517822 175.70016479 C61.04526119 181.17076561 55.57430123 186.55820213 49.70092773 191.57983398 C47.54398916 193.44943787 45.54940185 195.45196271 43.5625 197.5 C40.15930956 200.94996969 36.64124986 204.16704804 32.9609375 207.31640625 C31.07099949 208.99246239 29.31820923 210.74720788 27.5625 212.5625 C22.73643038 217.47732493 17.14419524 223.02170028 10 223.4375 C2.57357525 223.3421366 -2.47520652 218.59868757 -7.5 213.5625 C-8.06589844 212.96953125 -8.63179688 212.3765625 -9.21484375 211.765625 C-10.92710909 210.0106501 -12.70405031 208.41099953 -14.5625 206.8125 C-23.75203788 198.8600153 -32.50154684 190.50841854 -41.04614258 181.87207031 C-44.59911432 178.29460221 -48.23587032 174.90037097 -52.078125 171.6328125 C-57.93160598 166.4925708 -63.20425204 160.79552343 -68.265625 154.88671875 C-69.87954468 153.06540284 -71.56247231 151.37732032 -73.3125 149.6875 C-76.99699969 146.06018767 -80.18916766 142.10410732 -83.421875 138.07421875 C-85.19270674 135.91017438 -86.9766383 133.79881989 -88.828125 131.70703125 C-107.09191171 111.04345077 -120.06939511 88.57254171 -120.1875 60.375 C-120.208125 59.16714844 -120.22875 57.95929688 -120.25 56.71484375 C-120.29805161 45.55485685 -118.38704975 35.71888995 -113.1875 25.8125 C-112.84041992 25.13469482 -112.49333984 24.45688965 -112.13574219 23.75854492 C-109.29095483 18.35176641 -105.93747725 13.61902135 -101.9375 9 C-101.33035156 8.19691406 -100.72320312 7.39382812 -100.09765625 6.56640625 C-74.96039875 -23.29829208 -29.25592422 -22.45251592 0 0 Z " fill="#FCFDFC" transform="translate(261.9375,207)"/>
<path d="M0 0 C3.20771423 2.13692429 6.10537769 4.46085763 9 7 C9.73347656 7.58007812 10.46695313 8.16015625 11.22265625 8.7578125 C24.6533281 19.76958119 34.74315817 37.80652116 37 55 C38.85950314 78.18792436 35.76907689 99.56491749 20.7734375 118.03515625 C19 120 19 120 16.42236328 122.09741211 C13.30171667 125.83671543 13.34995323 128.75658837 13.46875 133.40625 C13.46548706 134.20857056 13.46222412 135.01089111 13.4588623 135.83752441 C13.44904699 138.39236498 13.4706138 140.94532785 13.5 143.5 C13.53871057 146.86528128 13.5449368 150.22831862 13.53125 153.59375 C13.56067688 154.7455072 13.56067688 154.7455072 13.59069824 155.92053223 C13.57115443 159.95936209 13.17638399 161.77650112 10.64282227 164.98681641 C8 167 8 167 5.18359375 167.6171875 C0.74798572 166.75727821 -2.25711159 164.66785989 -5.9375 162.125 C-6.67750244 161.63483398 -7.41750488 161.14466797 -8.17993164 160.63964844 C-11.88104848 158.17776421 -15.51281308 155.64116231 -19.09375 153.0078125 C-26.28167059 147.32116382 -26.28167059 147.32116382 -34.9375 145.875 C-35.71609375 146.05289063 -36.4946875 146.23078125 -37.296875 146.4140625 C-56.77772015 150.63678905 -75.64842734 143.28981164 -91.875 133.0625 C-102.05051213 125.85242283 -109.13128219 117.30307671 -116 107 C-116 106.01 -116 105.02 -116 104 C-98.55706908 102.08804299 -98.55706908 102.08804299 -92.98876953 105.08105469 C-90.13336266 107.39386059 -87.87840166 110.10773587 -85.5625 112.9453125 C-81.97245911 117.22490393 -77.94760762 119.54664085 -73 122 C-71.87658203 122.58007812 -71.87658203 122.58007812 -70.73046875 123.171875 C-60.98058986 127.88460105 -49.33051559 129.87849923 -38.72265625 127.16015625 C-32.89990619 125.71280601 -28.87430342 125.23376334 -23.54296875 128.17578125 C-19.84881271 130.47236156 -16.33200481 132.9840486 -12.86328125 135.60644531 C-10.3105477 137.51564383 -7.66837483 139.25721769 -5 141 C-5.04189453 140.2793335 -5.08378906 139.55866699 -5.12695312 138.81616211 C-5.29412114 135.52385163 -5.39754788 132.2324335 -5.5 128.9375 C-5.60054687 127.2369043 -5.60054687 127.2369043 -5.703125 125.50195312 C-5.89728177 117.1774815 -5.89728177 117.1774815 -3.2956543 113.76342773 C-1.16796875 111.9296875 -1.16796875 111.9296875 0.95629883 110.44873047 C11.13877167 103.23062106 15.45788472 88.78140596 17.67480469 77.11425781 C20.16094162 60.95063482 16.29542619 45.82547112 7.18359375 32.3046875 C-4.00969538 17.51597823 -20.75713223 8.62586733 -39 6 C-57.86643813 4.69540587 -74.3668879 10.35660667 -88.6640625 22.74609375 C-94.47361254 28.35162949 -98.28024674 34.88967519 -102 42 C-102.66 42 -103.32 42 -104 42 C-104.88020483 38.17903937 -105.66639764 34.34433638 -106.4375 30.5 C-106.68693359 29.42234375 -106.93636719 28.3446875 -107.19335938 27.234375 C-108.71496338 19.3123732 -108.71496338 19.3123732 -106.6784668 15.57421875 C-104.90054942 13.52520639 -103.06114362 11.76013836 -101 10 C-100.28714844 9.2575 -99.57429688 8.515 -98.83984375 7.75 C-88.39481799 -1.85856579 -76.48644282 -7.13963 -63 -11 C-62.39792725 -11.17885742 -61.79585449 -11.35771484 -61.17553711 -11.54199219 C-39.93308837 -16.01408666 -18.28065067 -10.83933827 0 0 Z " fill="#FAFCFB" transform="translate(520,222)"/>
<path d="M0 0 C1.35219312 1.14475441 2.68654148 2.31100227 4 3.5 C4.99 4.35271484 4.99 4.35271484 6 5.22265625 C15.36987743 13.84221146 21.90833586 25.54592241 26 37.5 C26.31839844 38.42941406 26.63679688 39.35882813 26.96484375 40.31640625 C29.55761543 49.09837483 29.21985313 57.4127374 29 66.5 C20.09 66.5 11.18 66.5 2 66.5 C1.773125 63.6125 1.54625 60.725 1.3125 57.75 C-0.07324086 43.44124974 -5.02290305 32.07250015 -16.25 22.75 C-27.15419949 14.75729595 -39.55142926 11.16503158 -53 12.5 C-60.13639832 14.02804825 -66.48232302 16.24701145 -72.4140625 20.546875 C-74 21.5 -74 21.5 -77 21.5 C-79.05078125 19.33984375 -79.05078125 19.33984375 -81.3125 16.4375 C-82.49585938 14.94089844 -82.49585938 14.94089844 -83.703125 13.4140625 C-84.46109375 12.45242187 -85.2190625 11.49078125 -86 10.5 C-87.9768873 8.14541473 -89.98640164 5.82338272 -92 3.5 C-89.17210166 -3.4856732 -81.16044863 -7.10843695 -74.6875 -10.25 C-49.65231086 -20.82972428 -21.53534959 -16.14227748 0 0 Z " fill="#FCFDFD" transform="translate(373,206.5)"/>
<path d="M0 0 C3.03522895 1.63435405 5.28352297 3.055553 7.375 5.8125 C8.30178233 9.05623815 8.35340896 11.64261492 8 15 C5.87689359 18.4121353 3.86522064 20.74948744 0 22 C-4.61463874 22.49091901 -7.36135009 21.93113465 -11 19 C-11.99 16.525 -11.99 16.525 -13 14 C-25.87 14 -38.74 14 -52 14 C-52 18.29 -52 22.58 -52 27 C-30.88 27 -9.76 27 12 27 C12.33 25.68 12.66 24.36 13 23 C15.18353578 20.54352225 16.88165934 19.20259795 20.15625 18.609375 C24.12901485 18.42397931 26.44290092 18.67996436 29.9375 20.6875 C33.18032751 24.32339751 34 26.61360109 34 31.5 C32.97802993 35.07689524 31.91041864 36.91112306 28.87890625 39.1171875 C25.29357381 40.80177197 21.83722493 40.77027167 18 40 C15 38.25 15 38.25 13 36 C12.67 34.68 12.34 33.36 12 32 C-9.45 32 -30.9 32 -53 32 C-53 45.2 -53 58.4 -53 72 C-51.35 72.33 -49.7 72.66 -48 73 C-45.11394981 75.72571406 -44.09257233 77.65439665 -43.0625 81.5 C-42.9902334 85.54692942 -43.42062089 86.92138622 -46 90 C-49.0169439 92.48059832 -51.15201042 93.84100195 -55 94.5625 C-59.75075216 93.67173397 -62.54938511 90.89210638 -65.4375 87.125 C-66.31927745 83.79384074 -65.81612906 81.32281116 -65 78 C-63.17660948 75.29432374 -61.92542564 73.46271282 -59 72 C-58.67 58.8 -58.34 45.6 -58 32 C-79.12 32 -100.24 32 -122 32 C-122.66 33.65 -123.32 35.3 -124 37 C-126.14204883 39.76552702 -127.87232685 40.52467383 -131.3125 41 C-134.8926501 41.30953989 -136.70972434 40.97782312 -139.5 38.6875 C-143.11707148 34.79914816 -143.39260342 32.42043092 -143.359375 27.26171875 C-142.78943134 23.67479071 -140.79773951 22.13161106 -138 20 C-134.49259096 18.24629548 -130.70929516 19.04709486 -127 20 C-123.9375 22.4375 -123.9375 22.4375 -122 25 C-122 25.66 -122 26.32 -122 27 C-100.88 27 -79.76 27 -58 27 C-58 22.71 -58 18.42 -58 14 C-69.55256823 14.01485344 -81.10470159 14.05635029 -92.6570406 14.13209057 C-98.02101064 14.16641612 -103.3846942 14.19147919 -108.7487793 14.19555664 C-113.92319226 14.19982766 -119.09695833 14.22819074 -124.27116966 14.27343178 C-126.24753238 14.28644516 -128.22397237 14.29070095 -130.2003727 14.28615379 C-132.96413083 14.28127498 -135.72597834 14.30721778 -138.48950195 14.34057617 C-139.31093185 14.33195053 -140.13236176 14.32332489 -140.97868347 14.31443787 C-143.51768553 14.309507 -143.51768553 14.309507 -147 15 C-148.99051182 17.34689332 -148.99051182 17.34689332 -150 20 C-153.98324194 22.67993169 -158.35963697 22.83543078 -163 22 C-165.75569447 19.81840855 -167.43588747 18.12822506 -169 15 C-169.50698467 9.84565588 -169.50698467 9.84565588 -169 7 C-166.5625 4.0625 -166.5625 4.0625 -164 2 C-163.67 1.67 -163.34 1.34 -163 1 C-158.74997494 0.54338574 -155.04394559 0.57797944 -151.0625 2.1875 C-148.66945549 4.29047851 -148.07730547 6.04827964 -147 9 C-129.71059798 8.98620336 -112.42153098 8.94402199 -95.13229656 8.86790943 C-87.10484965 8.83323426 -79.07757489 8.80790062 -71.05004883 8.80444336 C-64.05444045 8.80140694 -57.05913849 8.78096043 -50.06364852 8.73947543 C-46.35839039 8.71811384 -42.65356822 8.70556066 -38.94824791 8.71384621 C-34.81492068 8.72276298 -30.68276242 8.6928156 -26.54956055 8.65942383 C-25.31669815 8.66804947 -24.08383575 8.67667511 -22.81361389 8.68556213 C-21.69040741 8.67027466 -20.56720093 8.65498718 -19.40995789 8.63923645 C-18.43193553 8.63647107 -17.45391317 8.63370569 -16.44625378 8.63085651 C-13.76339195 8.22211418 -13.76339195 8.22211418 -12.30640888 5.57332897 C-11.87529395 4.72413041 -11.44417902 3.87493185 -11 3 C-7.33060635 0.12398876 -4.62619262 -0.66088466 0 0 Z " fill="#F4F7F9" transform="translate(448,280)"/>
<path d="M0 0 C5.28 0 10.56 0 16 0 C17.85575828 4.31181932 19.71018025 8.62420331 21.5625 12.9375 C21.83567047 13.57338043 22.10884094 14.20926086 22.39028931 14.8644104 C26.01517144 23.30696578 29.60417447 31.76169258 33.03149414 40.28686523 C34.13578975 43.37497537 34.13578975 43.37497537 36 46 C38.38484246 40.25268963 40.76927131 34.50520791 43.15332031 28.75756836 C43.9640795 26.80309431 44.77495087 24.84866679 45.5859375 22.89428711 C46.75290077 20.08199143 47.91945799 17.26952761 49.0859375 14.45703125 C49.44746918 13.58601273 49.80900085 12.7149942 50.18148804 11.81758118 C50.52168976 10.997108 50.86189148 10.17663483 51.21240234 9.33129883 C51.50996429 8.61404129 51.80752625 7.89678375 52.11410522 7.15779114 C53.09114576 4.77799449 54.04457698 2.38855755 55 0 C60.28 0 65.56 0 71 0 C71 21.45 71 42.9 71 65 C67.04 65 63.08 65 59 65 C58.505 44.21 58.505 44.21 58 23 C55.380625 29.373125 52.76125 35.74625 50.0625 42.3125 C49.2362915 44.32126221 48.41008301 46.33002441 47.55883789 48.3996582 C46.90503212 49.99166696 46.25129988 51.58370592 45.59765625 53.17578125 C45.25730347 54.00251343 44.91695068 54.82924561 44.56628418 55.68103027 C44.24156128 56.47247437 43.91683838 57.26391846 43.58227539 58.0793457 C43.15924889 59.10859917 43.15924889 59.10859917 42.72767639 60.15864563 C42.09793197 61.7521873 41.54184436 63.37446692 41 65 C37.37 65 33.74 65 30 65 C29.69449219 64.14664063 29.38898438 63.29328125 29.07421875 62.4140625 C24.21450089 49.0653559 18.57884239 36.06265535 13 23 C12.67 36.86 12.34 50.72 12 65 C8.04 65 4.08 65 0 65 C0 43.55 0 22.1 0 0 Z " fill="#F8FBF9" transform="translate(185,467)"/>
<path d="M0 0 C3.96 0 7.92 0 12 0 C12 22.11 12 44.22 12 67 C8.04 67 4.08 67 0 67 C-0.495 64.03 -0.495 64.03 -1 61 C-1.763125 61.78375 -2.52625 62.5675 -3.3125 63.375 C-7.21051757 67.182366 -9.31770839 68.30624467 -14.6875 68.375 C-20.29332826 68.24651901 -24.62277276 67.66397369 -29 64 C-35.60773085 56.22706662 -37.54530671 48.63754781 -37.375 38.546875 C-36.63114589 31.51125486 -33.7046954 26.23775336 -28.5 21.5 C-23.60414306 17.78082971 -19.48465111 16.54245324 -13.3515625 16.67578125 C-9.4833987 17.20909951 -6.16505652 18.73057098 -3 21 C-2.34 21.99 -1.68 22.98 -1 24 C-0.67 16.08 -0.34 8.16 0 0 Z " fill="#F8FAF9" transform="translate(354,465)"/>
<path d="M0 0 C5.39961594 4.67021191 9.49425162 10.32004667 10.27734375 17.56640625 C10.56841263 25.93754728 9.14242379 32.68850071 3.875 39.3125 C-1.99763405 45.42931842 -7.65399145 47.21252962 -16.0625 47.5 C-23.96797311 47.23620057 -28.89157899 45.51385032 -34.3125 39.75 C-40.12494666 32.2429163 -41.18113727 24.37035565 -40 15 C-37.88862075 8.15913123 -34.1491681 2.74136131 -28 -1 C-18.57087319 -5.54186877 -9.0640952 -5.34856527 0 0 Z " fill="#F7F9F9" transform="translate(413,486)"/>
<path d="M0 0 C6.18133554 2.92945559 9.35121987 6.22901985 12.68359375 12.1796875 C13.93359375 16.0546875 13.93359375 16.0546875 13.93359375 27.0546875 C2.05359375 27.0546875 -9.82640625 27.0546875 -22.06640625 27.0546875 C-19.06981932 35.41036948 -19.06981932 35.41036948 -15.81640625 38.1171875 C-11.3752203 39.63122816 -7.20812171 39.78737963 -2.69140625 38.2421875 C-0.76729461 36.97923672 -0.76729461 36.97923672 0.93359375 34.0546875 C3.97265625 33.76171875 3.97265625 33.76171875 7.55859375 33.8671875 C8.74710937 33.89425781 9.935625 33.92132812 11.16015625 33.94921875 C12.07539063 33.98402344 12.990625 34.01882813 13.93359375 34.0546875 C11.68202944 39.82432104 7.99322902 43.6166166 2.93359375 47.0546875 C-4.18560118 50.04335929 -13.29942301 50.73757704 -20.64453125 48.14453125 C-26.3003111 44.78776115 -31.17090616 39.55008948 -33.5546875 33.36328125 C-35.17175971 26.06794019 -35.48142722 17.75212099 -32.00390625 10.9921875 C-24.4857351 -0.32778611 -13.02498635 -4.01534611 0 0 Z " fill="#F8FAF9" transform="translate(297.06640625,483.9453125)"/>
<path d="M0 0 C4.29 0 8.58 0 13 0 C15.93673153 7.09872191 18.42800565 14.22283536 20.6875 21.5625 C21.2927805 23.52299972 21.90070493 25.48268581 22.51171875 27.44140625 C22.77428467 28.29420166 23.03685059 29.14699707 23.30737305 30.02563477 C23.8314412 31.97582972 23.8314412 31.97582972 25 33 C28.63 22.11 32.26 11.22 36 0 C40.29 0 44.58 0 49 0 C44.71030552 13.20973565 40.2413508 26.35070465 35.54162598 39.41995239 C35.01660247 40.88238775 34.49435443 42.34582267 33.97497559 43.81027222 C33.23634475 45.8896039 32.48684996 47.96470672 31.734375 50.0390625 C31.30350586 51.23740723 30.87263672 52.43575195 30.42871094 53.67041016 C27.89330639 59.57913319 25.27638292 63.64415783 19.4375 66.3203125 C14.70536244 67.63985086 9.86299675 67.29177981 5 67 C4.37093276 64.1973646 3.97464072 62.18174148 4.375 59.3125 C6.35995916 56.48775043 7.27286468 56.45604256 10.5625 55.75 C11.36816406 55.62109375 12.17382812 55.4921875 13.00390625 55.359375 C14.99294857 55.19725992 14.99294857 55.19725992 16 54 C16.48445403 48.06351566 15.12031878 43.69086175 13.0625 38.25 C12.4248027 36.50082977 11.78952609 34.75077575 11.15625 33 C10.81207031 32.05253906 10.46789062 31.10507812 10.11328125 30.12890625 C8.00396437 24.20061566 6.04100815 18.22294399 4.0625 12.25 C3.4603064 10.43677246 3.4603064 10.43677246 2.84594727 8.58691406 C1.89592113 5.72506614 0.94775319 2.86260146 0 0 Z " fill="#F8FAF9" transform="translate(462,484)"/>
<path d="M0 0 C2.87084495 -0.2861598 5.52504289 -0.37812186 8.39697266 -0.34057617 C9.69951241 -0.34123329 9.69951241 -0.34123329 11.02836609 -0.34190369 C13.90715794 -0.33980867 16.78537202 -0.3164442 19.6640625 -0.29296875 C21.6566028 -0.28737533 23.64914722 -0.28310403 25.64169312 -0.28010559 C30.89269347 -0.26863684 36.14344592 -0.23915221 41.39434814 -0.20599365 C46.74984381 -0.17533647 52.10537943 -0.16160957 57.4609375 -0.14648438 C67.97406741 -0.11428445 78.48701311 -0.06306362 89 0 C89 4.29 89 8.58 89 13 C80.74177202 13.13567163 72.48441332 13.24569579 64.22536945 13.31087303 C60.39014019 13.34215849 56.5557142 13.38457663 52.72094727 13.45263672 C49.01856307 13.5179344 45.31695031 13.55372701 41.61403465 13.56926346 C40.20296268 13.58033166 38.79193195 13.60194683 37.38118935 13.63438034 C26.26084077 13.87982295 26.26084077 13.87982295 23.07443237 11.65632629 C21.73706055 10.02026367 21.73706055 10.02026367 20 7 C17.00075667 5.80338408 14.20800301 5.73266642 11 6 C7.94852848 7.33501879 6.48813283 8.02373434 5 11 C4.92966231 12.87379605 4.9156978 14.75001102 4.9375 16.625 C4.95103516 18.12933594 4.95103516 18.12933594 4.96484375 19.6640625 C4.97644531 20.43492187 4.98804688 21.20578125 5 22 C4.34 22 3.68 22 3 22 C3 21.34 3 20.68 3 20 C2.01 19.67 1.02 19.34 0 19 C0 15.04 0 11.08 0 7 C-2.31 7.33 -4.62 7.66 -7 8 C-6.21625 7.236875 -5.4325 6.47375 -4.625 5.6875 C-1.92742283 3.09108195 -1.92742283 3.09108195 0 0 Z " fill="#285897" transform="translate(301,294)"/>
<path d="M0 0 C0 3.3 0 6.6 0 10 C-1.381875 10.2475 -2.76375 10.495 -4.1875 10.75 C-8.34194868 11.66594144 -10.93775295 12.93775295 -14 16 C-15.4764236 18.9528472 -15.22272939 21.68448983 -15.31640625 24.9765625 C-15.33718735 25.66181 -15.35796844 26.3470575 -15.37937927 27.05307007 C-15.44480185 29.24361069 -15.50372554 31.43427189 -15.5625 33.625 C-15.60569218 35.1093875 -15.6493067 36.59376278 -15.69335938 38.078125 C-15.80047553 41.71862084 -15.90176362 45.35925251 -16 49 C-20.29 49 -24.58 49 -29 49 C-29 33.16 -29 17.32 -29 1 C-25.04 1 -21.08 1 -17 1 C-16.67 2.98 -16.34 4.96 -16 7 C-15.13375 5.824375 -15.13375 5.824375 -14.25 4.625 C-9.87788661 -0.47579895 -6.41559856 -0.21385329 0 0 Z " fill="#F5F9F9" transform="translate(458,483)"/>
<path d="M0 0 C0.33 0 0.66 0 1 0 C1.495 5.445 1.495 5.445 2 11 C6.95 11 11.9 11 17 11 C17 11.33 17 11.66 17 12 C16.38511719 12.10957031 15.77023437 12.21914063 15.13671875 12.33203125 C14.32847656 12.49058594 13.52023437 12.64914062 12.6875 12.8125 C11.48673828 13.03873047 11.48673828 13.03873047 10.26171875 13.26953125 C7.70960726 14.09378833 6.64683212 14.90725641 5 17 C4.505 18.485 4.505 18.485 4 20 C-17.12 20 -38.24 20 -60 20 C-60 15.71 -60 11.42 -60 7 C-54.50081611 6.87647835 -49.00243782 6.7856991 -43.50219727 6.7253418 C-41.63096046 6.70018422 -39.75982205 6.66605407 -37.88891602 6.62280273 C-35.20043697 6.56220323 -32.51325564 6.53380397 -29.82421875 6.51171875 C-28.98662521 6.48591232 -28.14903168 6.4601059 -27.28605652 6.43351746 C-24.9206543 6.43237305 -24.9206543 6.43237305 -21 7 C-19.06176758 9.44848633 -19.06176758 9.44848633 -18 12 C-14.78144775 14.33067577 -11.89509474 14.46741137 -8 14 C-4.59189711 12.78421903 -4.59189711 12.78421903 -2 10 C-0.9156554 6.70565782 -0.3809252 3.44146219 0 0 Z " fill="#285696" transform="translate(456,287)"/>
<path d="M0 0 C0.79481277 0.00141495 1.58962555 0.0028299 2.40852356 0.00428772 C4.9455645 0.00988247 7.482517 0.02243397 10.01953125 0.03515625 C11.7402331 0.04017193 13.46093633 0.04473472 15.18164062 0.04882812 C19.39847155 0.05985018 23.61523641 0.07711119 27.83203125 0.09765625 C27.83203125 0.42765625 27.83203125 0.75765625 27.83203125 1.09765625 C26.87949463 1.08081787 25.92695801 1.06397949 24.94555664 1.04663086 C21.37216187 0.99555347 17.80089059 1.004499 14.22729492 1.03051758 C12.68818039 1.03357809 11.14894345 1.02089311 9.61010742 0.99145508 C0.31374462 0.68781323 0.31374462 0.68781323 -8.12841797 4.04052734 C-10.38401424 6.28328949 -12.28831924 8.53657597 -14.16796875 11.09765625 C-15.24405271 12.35390241 -16.32585044 13.60532428 -17.41796875 14.84765625 C-17.835625 15.358125 -18.25328125 15.86859375 -18.68359375 16.39453125 C-20.27060398 18.21541668 -21.96427208 19.904848 -23.67538452 21.60830688 C-25.27607477 23.20552797 -26.86766355 24.81142632 -28.45776367 26.41918945 C-31.71802855 29.7148983 -34.98426143 33.00462005 -38.25268555 36.29223633 C-39.66168419 37.71137754 -41.06889503 39.13229589 -42.47436523 40.55493164 C-44.50691125 42.61160424 -46.54573232 44.66186619 -48.5859375 46.7109375 C-49.21614304 47.35146561 -49.84634857 47.99199371 -50.49565125 48.65193176 C-52.01559761 50.17227107 -53.58723852 51.64061799 -55.16796875 53.09765625 C-55.82796875 53.09765625 -56.48796875 53.09765625 -57.16796875 53.09765625 C-57.16796875 53.75765625 -57.16796875 54.41765625 -57.16796875 55.09765625 C-58.49609375 56.40234375 -58.49609375 56.40234375 -60.41796875 57.97265625 C-63.17072085 60.28300176 -65.75306105 62.66259761 -68.23046875 65.26171875 C-69.0208252 66.08567139 -69.0208252 66.08567139 -69.82714844 66.92626953 C-70.87972581 68.03215423 -71.92229012 69.14766471 -72.95410156 70.27294922 C-76.59653238 74.07285807 -76.59653238 74.07285807 -79.23828125 74.1875 C-81.74348932 72.77261528 -83.68005307 71.11821655 -85.79296875 69.16015625 C-86.66953125 68.34933594 -87.54609375 67.53851563 -88.44921875 66.703125 C-91.88074003 63.41458377 -95.23625334 60.0586233 -98.55078125 56.65234375 C-100.51615759 54.73390177 -102.47897053 52.96522348 -104.56640625 51.19140625 C-110.57384925 45.98157356 -116.12397839 40.29066166 -121.734375 34.66162109 C-123.68765452 32.70291579 -125.64630698 30.74969486 -127.60546875 28.796875 C-128.84537343 27.55631067 -130.08496849 26.3154368 -131.32421875 25.07421875 C-131.91158813 24.4888736 -132.49895752 23.90352844 -133.10412598 23.30044556 C-137.16796875 19.21264831 -137.16796875 19.21264831 -137.16796875 18.09765625 C-132.67767749 17.73357858 -132.67767749 17.73357858 -130.41796875 19.34765625 C-129.16796875 21.09765625 -129.16796875 21.09765625 -128.91796875 23.03515625 C-127.80704223 26.09020419 -125.54317246 26.64760231 -122.74609375 28.0859375 C-121.16796875 29.09765625 -121.16796875 29.09765625 -120.41796875 31.28515625 C-120.29421875 32.18234375 -120.29421875 32.18234375 -120.16796875 33.09765625 C-118.68296875 33.59265625 -118.68296875 33.59265625 -117.16796875 34.09765625 C-117.16796875 34.75765625 -117.16796875 35.41765625 -117.16796875 36.09765625 C-115.68296875 36.59265625 -115.68296875 36.59265625 -114.16796875 37.09765625 C-114.16796875 38.08765625 -114.16796875 39.07765625 -114.16796875 40.09765625 C-112.84796875 40.42765625 -111.52796875 40.75765625 -110.16796875 41.09765625 C-110.16796875 42.08765625 -110.16796875 43.07765625 -110.16796875 44.09765625 C-109.44609375 44.15953125 -108.72421875 44.22140625 -107.98046875 44.28515625 C-104.24380465 45.36463699 -102.64144612 47.14322494 -100.16796875 50.09765625 C-99.35546875 52.41015625 -99.35546875 52.41015625 -99.16796875 54.09765625 C-98.17796875 54.09765625 -97.18796875 54.09765625 -96.16796875 54.09765625 C-96.16796875 54.75765625 -96.16796875 55.41765625 -96.16796875 56.09765625 C-95.52859375 56.20078125 -94.88921875 56.30390625 -94.23046875 56.41015625 C-93.54984375 56.63703125 -92.86921875 56.86390625 -92.16796875 57.09765625 C-91.83796875 58.08765625 -91.50796875 59.07765625 -91.16796875 60.09765625 C-90.17796875 60.42765625 -89.18796875 60.75765625 -88.16796875 61.09765625 C-88.16796875 62.08765625 -88.16796875 63.07765625 -88.16796875 64.09765625 C-87.36359375 64.07703125 -86.55921875 64.05640625 -85.73046875 64.03515625 C-83.16796875 64.09765625 -83.16796875 64.09765625 -82.16796875 65.09765625 C-78.83654597 65.59890908 -78.83654597 65.59890908 -75.16796875 65.09765625 C-72.71682015 62.94019695 -72.71682015 62.94019695 -70.16796875 60.09765625 C-69.08458224 58.98322045 -67.99714265 57.87271431 -66.90625 56.765625 C-66.06416992 55.91000977 -66.06416992 55.91000977 -65.20507812 55.03710938 C-64.63595703 54.45896484 -64.06683594 53.88082031 -63.48046875 53.28515625 C-62.60938477 52.38893555 -62.60938477 52.38893555 -61.72070312 51.47460938 C-60.24071299 49.97750952 -58.70814093 48.53276894 -57.16796875 47.09765625 C-56.50796875 47.09765625 -55.84796875 47.09765625 -55.16796875 47.09765625 C-55.16796875 46.43765625 -55.16796875 45.77765625 -55.16796875 45.09765625 C-54.50796875 45.09765625 -53.84796875 45.09765625 -53.16796875 45.09765625 C-53.16796875 44.10765625 -53.16796875 43.11765625 -53.16796875 42.09765625 C-51.76953125 40.625 -51.76953125 40.625 -49.79296875 39.03515625 C-45.31684524 35.31038204 -41.30588478 31.23162166 -37.26953125 27.0390625 C-35.16796875 25.09765625 -35.16796875 25.09765625 -33.16796875 25.09765625 C-33.16796875 24.43765625 -33.16796875 23.77765625 -33.16796875 23.09765625 C-31.5445707 21.3888162 -29.87477822 19.72318908 -28.16796875 18.09765625 C-27.50796875 17.43765625 -26.84796875 16.77765625 -26.16796875 16.09765625 C-24.84796875 16.09765625 -23.52796875 16.09765625 -22.16796875 16.09765625 C-21.79671875 15.29328125 -21.79671875 15.29328125 -21.41796875 14.47265625 C-17.18924535 6.43808178 -17.18924535 6.43808178 -13.16796875 5.09765625 C-12.83796875 4.43765625 -12.50796875 3.77765625 -12.16796875 3.09765625 C-9.96986957 -1.29854211 -4.28985133 -0.02868128 0 0 Z " fill="#396299" transform="translate(351.16796875,324.90234375)"/>
<path d="M0 0 C4.45712546 2.31427668 6.78475261 4.53109052 9 9 C9.87030523 15.33957632 9.85992226 21.6759693 6 27 C3.7683496 29.49419751 2.17859175 30.78999638 -1.1484375 31.3828125 C-5.16459492 31.58295324 -7.4330201 31.33777526 -10.9375 29.25 C-14.83873449 24.99410783 -15.29404694 21.82600469 -15.3125 16.0625 C-15.32925781 14.85722656 -15.34601563 13.65195312 -15.36328125 12.41015625 C-14.85087121 7.60011358 -13.06670844 5.09633923 -9.75 1.6875 C-6.15820003 -0.51655907 -4.1555869 -0.58324027 0 0 Z " fill="#0D52AC" transform="translate(401,492)"/>
<path d="M0 0 C3.03809699 1.53362669 5.08447014 3.1736274 7 6 C9.04734784 12.8874881 8.20791838 18.69478112 5 25 C1.87432867 28.80941194 -0.3955208 29.81836084 -5.3125 30.375 C-10.06996825 29.89118967 -11.76367705 28.46211292 -15 25 C-17.66515545 19.66968909 -18.10296257 13.43408886 -16.27734375 7.75 C-14.81587739 4.5312239 -13.36662307 2.33607115 -10.75 -0.0625 C-6.90428354 -1.3735397 -3.79636059 -1.25588488 0 0 Z " fill="#0D52AC" transform="translate(346,493)"/>
<path d="M0 0 C0 0.99 0 1.98 0 3 C2.31 3 4.62 3 7 3 C7 3.33 7 3.66 7 4 C5.91203125 4.03738281 4.8240625 4.07476562 3.703125 4.11328125 C-17.98543057 5.0077824 -36.93897057 11.74994193 -52 28 C-52.51949219 28.50273437 -53.03898437 29.00546875 -53.57421875 29.5234375 C-66.79226478 43.12762869 -71.1780673 61.59443445 -71.1875 79.875 C-71.19974609 81.11636719 -71.21199219 82.35773438 -71.22460938 83.63671875 C-71.23499239 90.13648673 -70.9312847 95.78757851 -69 102 C-68.65334443 103.66394675 -68.31323028 105.32943851 -68 107 C-68.99 107.495 -68.99 107.495 -70 108 C-73.33530434 99.56247415 -73.32177688 91.93824669 -73 83 C-73.66 83 -74.32 83 -75 83 C-74.76685964 79.60210329 -74.52654876 76.20507319 -74.2734375 72.80859375 C-74.10995197 70.53147392 -73.96336789 68.25289786 -73.8515625 65.97265625 C-73.19233481 55.03261578 -68.40751089 46.35541088 -63 37 C-62.52949219 36.18402344 -62.05898437 35.36804688 -61.57421875 34.52734375 C-59.10463974 30.39680895 -59.10463974 30.39680895 -58 29 C-57.34 29 -56.68 29 -56 29 C-55.67 27.35 -55.34 25.7 -55 24 C-54.34 24 -53.68 24 -53 24 C-53 23.34 -53 22.68 -53 22 C-52.01 21.67 -51.02 21.34 -50 21 C-49.31363942 19.6766968 -48.64877805 18.34212863 -48 17 C-43.11532401 12.21552249 -36.93965155 9.30025362 -30.83203125 6.39453125 C-27.99820785 5.06354054 -27.99820785 5.06354054 -25.48828125 3.3984375 C-18.07255241 -0.76927196 -8.27753187 -0.29329837 0 0 Z " fill="#386398" transform="translate(214,187)"/>
<path d="M0 0 C3.50220557 2.08642034 5.62821628 4.13406405 7 8 C7 8.99 7 9.98 7 11 C-0.59 11 -8.18 11 -16 11 C-16 6 -16 6 -14.78515625 4.19921875 C-10.08804385 0.07726297 -6.22839169 -1.37889347 0 0 Z " fill="#0F52AC" transform="translate(292,492)"/>
<path d="M0 0 C5.20682091 5.20682091 5.2521612 14.78949852 5.4375 21.75 C5.29180942 39.6056665 -1.27618336 54.92269828 -13.609375 67.69921875 C-16 70 -16 70 -18 71 C-18 69.68 -18 68.36 -18 67 C-17.01 67 -16.02 67 -15 67 C-14.896875 66.360625 -14.79375 65.72125 -14.6875 65.0625 C-14.460625 64.381875 -14.23375 63.70125 -14 63 C-12.515 62.505 -12.515 62.505 -11 62 C-10.938125 61.29875 -10.87625 60.5975 -10.8125 59.875 C-9.91738402 56.70766654 -8.44950895 55.10282443 -6.27734375 52.69140625 C-4.05782453 49.75240985 -3.13958973 46.47874759 -2 43 C-1.34 43 -0.68 43 0 43 C0.144375 42.4225 0.28875 41.845 0.4375 41.25 C0.78174432 39.87302271 1.14065854 38.49948076 1.5246582 37.13305664 C2.38305944 33.28105274 2.19039049 29.36857242 2.1875 25.4375 C2.18814453 24.54160156 2.18878906 23.64570313 2.18945312 22.72265625 C2.14408755 17.03133915 1.737602 11.65529746 0.4375 6.09375 C0 4 0 4 0 0 Z " fill="#3E669C" transform="translate(534,267)"/>
<path d="M0 0 C0.33 0 0.66 0 1 0 C1 7.92 1 15.84 1 24 C-1.64874381 22.67562809 -3.99840752 21.42695809 -6.453125 19.8359375 C-7.071875 19.43632812 -7.690625 19.03671875 -8.328125 18.625 C-8.96234375 18.2125 -9.5965625 17.8 -10.25 17.375 C-11.22453125 16.74464844 -11.22453125 16.74464844 -12.21875 16.1015625 C-13.81368881 15.06954327 -15.40700669 14.03501972 -17 13 C-16.34 12.67 -15.68 12.34 -15 12 C-14.01 12.66 -13.02 13.32 -12 14 C-9.94290404 14.24055468 -9.94290404 14.24055468 -7.8125 14.125 C-6.554375 14.08375 -5.29625 14.0425 -4 14 C-3.87882812 13.32453125 -3.75765625 12.6490625 -3.6328125 11.953125 C-3.46523438 11.06109375 -3.29765625 10.1690625 -3.125 9.25 C-2.96257812 8.36828125 -2.80015625 7.4865625 -2.6328125 6.578125 C-2.03203736 4.13052256 -1.22002883 2.19400143 0 0 Z " fill="#42699F" transform="translate(514,339)"/>
<path d="M0 0 C1.19221916 0.00212242 1.19221916 0.00212242 2.40852356 0.00428772 C4.9455645 0.00988247 7.482517 0.02243397 10.01953125 0.03515625 C11.7402331 0.04017193 13.46093633 0.04473472 15.18164062 0.04882812 C19.39847155 0.05985018 23.61523641 0.07711119 27.83203125 0.09765625 C27.83203125 0.42765625 27.83203125 0.75765625 27.83203125 1.09765625 C26.87949463 1.08081787 25.92695801 1.06397949 24.94555664 1.04663086 C21.37216187 0.99555347 17.80089059 1.004499 14.22729492 1.03051758 C12.68818039 1.03357809 11.14894345 1.02089311 9.61010742 0.99145508 C0.31497675 0.69179601 0.31497675 0.69179601 -8.13500977 4.03173828 C-10.40475141 6.27731661 -12.30745364 8.5075861 -14.16796875 11.09765625 C-19.31963398 17.83960177 -19.31963398 17.83960177 -22.3125 18.75 C-24.54296875 19.03515625 -24.54296875 19.03515625 -28.16796875 19.09765625 C-27.17796875 17.61265625 -27.17796875 17.61265625 -26.16796875 16.09765625 C-24.84796875 16.09765625 -23.52796875 16.09765625 -22.16796875 16.09765625 C-21.92046875 15.56140625 -21.67296875 15.02515625 -21.41796875 14.47265625 C-17.18924535 6.43808178 -17.18924535 6.43808178 -13.16796875 5.09765625 C-12.83796875 4.43765625 -12.50796875 3.77765625 -12.16796875 3.09765625 C-9.96986957 -1.29854211 -4.28985133 -0.02868128 0 0 Z " fill="#305C99" transform="translate(351.16796875,324.90234375)"/>
<path d="M0 0 C-2.95478048 1.57736402 -5.99255048 2.77690587 -9.12597656 3.95214844 C-21.7609311 8.74999048 -31.31579125 15.69042215 -41 25 C-41.33 24.01 -41.66 23.02 -42 22 C-41.34 22 -40.68 22 -40 22 C-39.67 20.68 -39.34 19.36 -39 18 C-38.34 18 -37.68 18 -37 18 C-37 17.34 -37 16.68 -37 16 C-36.01 16 -35.02 16 -34 16 C-34 15.34 -34 14.68 -34 14 C-33.071875 13.87625 -33.071875 13.87625 -32.125 13.75 C-29.84645565 13.20721701 -29.84645565 13.20721701 -28.9375 11.125 C-28.628125 10.42375 -28.31875 9.7225 -28 9 C-23.54969688 3.72140703 -15.83280298 0.96407451 -9.125 0.1875 C-6.0851231 -0.00897319 -3.04569207 -0.09824813 0 0 Z " fill="#376097" transform="translate(457,211)"/>
<path d="M0 0 C1.37444447 3.70578066 0.58339615 5.7843281 -0.875 9.375 C-4.27838047 17.82395152 -4.1828566 25.87609083 -4.1875 34.875 C-4.19974609 36.11636719 -4.21199219 37.35773438 -4.22460938 38.63671875 C-4.23499239 45.13648673 -3.9312847 50.78757851 -2 57 C-1.65334443 58.66394675 -1.31323028 60.32943851 -1 62 C-1.99 62.495 -1.99 62.495 -3 63 C-6.33530434 54.56247415 -6.32177688 46.93824669 -6 38 C-6.66 38 -7.32 38 -8 38 C-7.76685964 34.60210329 -7.52654876 31.20507319 -7.2734375 27.80859375 C-7.10995197 25.53147392 -6.96336789 23.25289786 -6.8515625 20.97265625 C-6.38178383 13.1765673 -4.35192474 6.52788711 0 0 Z " fill="#446C9F" transform="translate(147,232)"/>
<path d="M0 0 C2.05078125 0.03255208 4.1015625 0.06510417 6.15234375 0.09765625 C6.15234375 0.42765625 6.15234375 0.75765625 6.15234375 1.09765625 C7.88871094 1.27941406 7.88871094 1.27941406 9.66015625 1.46484375 C11.19925667 1.63376941 12.73831712 1.80305957 14.27734375 1.97265625 C15.03789062 2.05128906 15.7984375 2.12992188 16.58203125 2.2109375 C21.02385924 2.70872857 24.93526834 3.5379982 29.15234375 5.09765625 C29.98378906 5.33226562 30.81523437 5.566875 31.671875 5.80859375 C32.42855469 6.02773437 33.18523437 6.246875 33.96484375 6.47265625 C34.73441406 6.68664062 35.50398438 6.900625 36.296875 7.12109375 C38.15234375 8.09765625 38.15234375 8.09765625 38.9140625 10.19921875 C38.99269531 10.82570312 39.07132812 11.4521875 39.15234375 12.09765625 C35.92823518 11.02792887 32.70935182 9.94573273 29.49609375 8.84375 C28.21486081 8.40750197 26.9336106 7.97130466 25.65234375 7.53515625 C25.01425781 7.31408203 24.37617188 7.09300781 23.71875 6.86523438 C16.62004486 4.46270738 10.19341761 3.93767477 2.77734375 3.97265625 C1.55917969 3.96685547 1.55917969 3.96685547 0.31640625 3.9609375 C-4.8254218 3.96917761 -9.75860822 4.36062171 -14.84765625 5.09765625 C-14.84765625 4.43765625 -14.84765625 3.77765625 -14.84765625 3.09765625 C-13.52765625 3.09765625 -12.20765625 3.09765625 -10.84765625 3.09765625 C-10.84765625 2.43765625 -10.84765625 1.77765625 -10.84765625 1.09765625 C-9.54828125 1.11828125 -8.24890625 1.13890625 -6.91015625 1.16015625 C-5.55599992 1.18165079 -4.20009542 1.16913824 -2.84765625 1.09765625 C-1.84765625 0.09765625 -1.84765625 0.09765625 0 0 Z " fill="#3A68A0" transform="translate(323.84765625,187.90234375)"/>
<path d="M0 0 C0 3.38814541 -0.61619669 4.30216779 -2.4375 7.0625 C-4.33583247 9.96376589 -4.33583247 9.96376589 -6 13 C-6.99 13 -7.98 13 -9 13 C-9.33 14.32 -9.66 15.64 -10 17 C-10.639375 17.103125 -11.27875 17.20625 -11.9375 17.3125 C-12.618125 17.539375 -13.29875 17.76625 -14 18 C-14.33 18.99 -14.66 19.98 -15 21 C-15.66 21 -16.32 21 -17 21 C-17.33 21.99 -17.66 22.98 -18 24 C-18.804375 24.28875 -19.60875 24.5775 -20.4375 24.875 C-23.23928441 25.77944219 -23.23928441 25.77944219 -24.3125 28.625 C-24.539375 29.40875 -24.76625 30.1925 -25 31 C-26.65 31 -28.3 31 -30 31 C-24.33425951 24.07189276 -17.96966361 17.85795858 -11.625 11.5625 C-10.49586045 10.43838533 -9.36695222 9.31403826 -8.23828125 8.18945312 C-5.49484812 5.45694765 -2.74830015 2.72760991 0 0 Z " fill="#2D5D99" transform="translate(349,361)"/>
<path d="M0 0 C0 2.85122184 -0.36992093 5.2159625 -0.9375 8 C-1.11152344 8.86625 -1.28554688 9.7325 -1.46484375 10.625 C-2 13 -2 13 -3 16 C-3.14715199 17.62567079 -3.24721867 19.25586857 -3.31640625 20.88671875 C-3.35830078 21.82451172 -3.40019531 22.76230469 -3.44335938 23.72851562 C-3.48267578 24.70498047 -3.52199219 25.68144531 -3.5625 26.6875 C-3.60568359 27.67556641 -3.64886719 28.66363281 -3.69335938 29.68164062 C-3.79941654 32.12095546 -3.90147714 34.56037113 -4 37 C-4.66 37 -5.32 37 -6 37 C-6.14902359 32.69512894 -6.25752347 28.3916475 -6.32958984 24.08496094 C-6.35964802 22.62212962 -6.40050856 21.15947683 -6.45263672 19.69726562 C-6.87639713 7.49961287 -6.87639713 7.49961287 -4.63769531 3.66894531 C-2.9765625 2.0078125 -2.9765625 2.0078125 0 0 Z " fill="#305E99" transform="translate(539,341)"/>
<path d="M0 0 C0.66 0.33 1.32 0.66 2 1 C1.34 2.65 0.68 4.3 0 6 C-0.99 6 -1.98 6 -3 6 C-3.33 6.99 -3.66 7.98 -4 9 C-5.4375 10.6875 -5.4375 10.6875 -7 12 C-7.66 12 -8.32 12 -9 12 C-9 12.66 -9 13.32 -9 14 C-13.35294118 18 -13.35294118 18 -17 18 C-16.67 18.99 -16.34 19.98 -16 21 C-16.99 21 -17.98 21 -19 21 C-19.33 21.99 -19.66 22.98 -20 24 C-20.66 24 -21.32 24 -22 24 C-22.33 24.99 -22.66 25.98 -23 27 C-26.0625 28.1875 -26.0625 28.1875 -29 29 C-24.51020039 23.55114509 -19.68322482 18.72446774 -14.5 13.9375 C-9.58156755 9.3691493 -4.71340311 4.78052435 0 0 Z " fill="#416A9D" transform="translate(316,393)"/>
<path d="M0 0 C7.59873436 6.95728276 11.14207689 16.90510473 12 27 C12.12829548 30.67474913 12.12793058 34.32554944 12 38 C11.67 38 11.34 38 11 38 C10.70996094 36.37191406 10.70996094 36.37191406 10.4140625 34.7109375 C10.15127083 33.26558332 9.88823714 31.82027312 9.625 30.375 C9.49867188 29.66214844 9.37234375 28.94929688 9.2421875 28.21484375 C8.46820055 23.99661486 7.46552052 20.04416541 6 16 C5.67 15.07058594 5.34 14.14117187 5 13.18359375 C4.67 12.27738281 4.34 11.37117187 4 10.4375 C3.67 9.52871094 3.34 8.61992187 3 7.68359375 C2.03923063 5.10527907 1.03296708 2.55013748 0 0 Z " fill="#3C659E" transform="translate(363,235)"/>
<path d="M0 0 C0.66 0 1.32 0 2 0 C3 3 3 3 1.8828125 5.3828125 C-2.412197 12.08302731 -7.13940616 17.61782198 -13 23 C-13.33 21.68 -13.66 20.36 -14 19 C-13.01 19 -12.02 19 -11 19 C-10.896875 18.360625 -10.79375 17.72125 -10.6875 17.0625 C-10.460625 16.381875 -10.23375 15.70125 -10 15 C-9.01 14.67 -8.02 14.34 -7 14 C-6.938125 13.29875 -6.87625 12.5975 -6.8125 11.875 C-5.70970684 7.97280881 -3.65783979 6.05651576 -1 3 C-0.67 2.01 -0.34 1.02 0 0 Z " fill="#336099" transform="translate(530,315)"/>
<path d="M0 0 C0.33 0 0.66 0 1 0 C0.58724005 3.43966623 0.15038614 6.58259444 -1.02685547 9.85009766 C-2.05571396 13.18033657 -2.22971585 15.7986994 -2.1953125 19.2734375 C-2.18886719 20.42714844 -2.18242187 21.58085937 -2.17578125 22.76953125 C-2.15902344 23.95933594 -2.14226562 25.14914062 -2.125 26.375 C-2.11597656 27.58800781 -2.10695312 28.80101562 -2.09765625 30.05078125 C-2.07416588 33.03405773 -2.04131682 36.01692594 -2 39 C-6.60030244 32.09954634 -5.75439881 22.05302417 -5 14 C-3.8621369 9.08650024 -2.25482248 4.50964496 0 0 Z " fill="#3A66A0" transform="translate(173,244)"/>
<path d="M0 0 C1.32 0 2.64 0 4 0 C4.3125 2.1875 4.3125 2.1875 4 5 C2.7934375 6.175625 2.7934375 6.175625 1.5625 7.375 C-1.61079175 10.62568911 -1.83736961 12.52766423 -2 17 C-1.65340705 19.32158065 -1.65340705 19.32158065 -1 21 C-1.99 20.67 -2.98 20.34 -4 20 C-5.93001092 15.43815601 -5.48554906 9.64234081 -4 5 C-3.34 5 -2.68 5 -2 5 C-2 4.01 -2 3.02 -2 2 C-1.34 2 -0.68 2 0 2 C0 1.34 0 0.68 0 0 Z " fill="#305E9C" transform="translate(385,348)"/>
<path d="M0 0 C0.33 0 0.66 0 1 0 C1 14.52 1 29.04 1 44 C0.67 44 0.34 44 0 44 C-0.33 32.12 -0.66 20.24 -1 8 C-1.99 8.495 -1.99 8.495 -3 9 C-2.01 6.03 -1.02 3.06 0 0 Z " fill="#3C75B9" transform="translate(243,488)"/>
<path d="M0 0 C2.05078125 0.03255208 4.1015625 0.06510417 6.15234375 0.09765625 C6.15234375 0.42765625 6.15234375 0.75765625 6.15234375 1.09765625 C9.12234375 1.42765625 12.09234375 1.75765625 15.15234375 2.09765625 C15.15234375 2.42765625 15.15234375 2.75765625 15.15234375 3.09765625 C14.52779297 3.1227124 13.90324219 3.14776855 13.25976562 3.17358398 C10.39047252 3.29066006 7.5214195 3.41287376 4.65234375 3.53515625 C3.67007812 3.57447266 2.6878125 3.61378906 1.67578125 3.65429688 C-3.88496215 3.89526242 -9.33620934 4.31686794 -14.84765625 5.09765625 C-14.84765625 4.43765625 -14.84765625 3.77765625 -14.84765625 3.09765625 C-13.52765625 3.09765625 -12.20765625 3.09765625 -10.84765625 3.09765625 C-10.84765625 2.43765625 -10.84765625 1.77765625 -10.84765625 1.09765625 C-9.54828125 1.11828125 -8.24890625 1.13890625 -6.91015625 1.16015625 C-5.55599992 1.18165079 -4.20009542 1.16913824 -2.84765625 1.09765625 C-1.84765625 0.09765625 -1.84765625 0.09765625 0 0 Z " fill="#2B5B9A" transform="translate(323.84765625,187.90234375)"/>
<path d="M0 0 C0.33 0.66 0.66 1.32 1 2 C0.360625 2.9075 -0.27875 3.815 -0.9375 4.75 C-2.61428953 7.39221381 -3.53689998 8.9898499 -4 12 C-4.66 12 -5.32 12 -6 12 C-6 12.66 -6 13.32 -6 14 C-7.75 15.5078125 -7.75 15.5078125 -10 17.125 C-10.7425 17.66382813 -11.485 18.20265625 -12.25 18.7578125 C-12.8275 19.16773438 -13.405 19.57765625 -14 20 C-14.66 19.67 -15.32 19.34 -16 19 C-15.43152344 18.38253906 -14.86304688 17.76507813 -14.27734375 17.12890625 C-9.2433136 11.60744079 -4.48772121 5.9740083 0 0 Z " fill="#3F679C" transform="translate(374,332)"/>
<path d="M0 0 C0 0.33 0 0.66 0 1 C-0.54527344 1.17015625 -1.09054688 1.3403125 -1.65234375 1.515625 C-7.22008643 3.30491666 -12.86287268 5.16769989 -18 8 C-18.33 8.66 -18.66 9.32 -19 10 C-21.06640625 10.4140625 -21.06640625 10.4140625 -23.5625 10.625 C-24.80193359 10.73714844 -24.80193359 10.73714844 -26.06640625 10.8515625 C-27.02353516 10.92503906 -27.02353516 10.92503906 -28 11 C-26.62048282 8.24096563 -25.17759337 8.16140149 -22.3125 7.125 C-19.16996804 5.92805844 -16.37343035 4.75547776 -13.625 2.8125 C-9.08053571 -0.32534439 -5.4724955 -0.1052403 0 0 Z " fill="#225A9F" transform="translate(202,188)"/>
<path d="M0 0 C0.33 0 0.66 0 1 0 C1 11.55 1 23.1 1 35 C1.66 35 2.32 35 3 35 C3.33 36.65 3.66 38.3 4 40 C2.68 39.67 1.36 39.34 0 39 C0 26.13 0 13.26 0 0 Z " fill="#1351A2" transform="translate(396,313)"/>
<path d="M0 0 C2.475 0.495 2.475 0.495 5 1 C5 1.66 5 2.32 5 3 C5.639375 3.268125 6.27875 3.53625 6.9375 3.8125 C9 5 9 5 10 8 C11.62652316 9.70586575 13.29006566 11.3777546 15 13 C14.67 13.99 14.34 14.98 14 16 C9.09222228 11.22647759 4.28953003 6.34561493 0 1 C0 0.67 0 0.34 0 0 Z " fill="#406494" transform="translate(199,327)"/>
<path d="M0 0 C2.36262446 2.99735938 4.24395515 6.0841219 6.0625 9.4375 C6.56910156 10.36433594 7.07570312 11.29117187 7.59765625 12.24609375 C8.89315059 14.79017039 9.98813782 17.33236334 11 20 C10.01 19.67 9.02 19.34 8 19 C8 18.01 8 17.02 8 16 C7.01 15.67 6.02 15.34 5 15 C1.48595628 9.93564288 0.42916209 6.11555975 0 0 Z " fill="#3E679E" transform="translate(148,301)"/>
<path d="M0 0 C1.093125 0.0825 2.18625 0.165 3.3125 0.25 C3.3125 0.91 3.3125 1.57 3.3125 2.25 C1.5546875 3.2265625 -0.203125 4.203125 -1.9609375 5.1796875 C-3.8487614 6.25897274 -3.8487614 6.25897274 -5.6875 8.25 C-8.8125 8.375 -8.8125 8.375 -11.6875 8.25 C-10.924375 7.6725 -10.16125 7.095 -9.375 6.5 C-6.65514095 4.46634337 -6.65514095 4.46634337 -5.3125 2 C-3.6875 0.25 -3.6875 0.25 0 0 Z " fill="#34629D" transform="translate(329.6875,312.75)"/>
<path d="M0 0 C0.33 0.99 0.66 1.98 1 3 C1.99 3 2.98 3 4 3 C4 3.66 4 4.32 4 5 C4.639375 5.103125 5.27875 5.20625 5.9375 5.3125 C6.618125 5.539375 7.29875 5.76625 8 6 C8.33 6.99 8.66 7.98 9 9 C9.99 9.33 10.98 9.66 12 10 C11.67 10.99 11.34 11.98 11 13 C5.73035473 10.36517737 2.02096446 6.20056089 -2 2 C-1.34 1.34 -0.68 0.68 0 0 Z " fill="#2F5B95" transform="translate(251,376)"/>
<path d="M0 0 C-3.66421065 1.90612978 -7.45107631 3.51122957 -11.25 5.125 C-11.8996875 5.40214844 -12.549375 5.67929688 -13.21875 5.96484375 C-14.81203053 6.64433104 -16.4059515 7.32231628 -18 8 C-18 7.01 -18 6.02 -18 5 C-17.01 5 -16.02 5 -15 5 C-15 4.34 -15 3.68 -15 3 C-9.63560356 0.31780178 -5.98993047 -0.3152595 0 0 Z " fill="#386199" transform="translate(308,193)"/>
<path d="M0 0 C6.48979592 0.48979592 6.48979592 0.48979592 8.9375 2.9375 C10 5 10 5 10 7 C9.01 7.33 8.02 7.66 7 8 C5.83035398 6.8572081 4.66435444 5.71068285 3.5 4.5625 C2.8503125 3.92441406 2.200625 3.28632813 1.53125 2.62890625 C0 1 0 1 0 0 Z " fill="#41689B" transform="translate(241,370)"/>
<path d="M0 0 C0.66 0.33 1.32 0.66 2 1 C-1.96 4.96 -5.92 8.92 -10 13 C-10.99 12.67 -11.98 12.34 -13 12 C-11.58653438 10.55935235 -10.16908789 9.12260985 -8.75 7.6875 C-7.96109375 6.88699219 -7.1721875 6.08648437 -6.359375 5.26171875 C-4.32605933 3.31256349 -2.29398922 1.62578594 0 0 Z " fill="#245CA3" transform="translate(190,225)"/>
<path d="M0 0 C0 4.07587476 -1.25991672 4.98590839 -4 8 C-11.23284823 15 -11.23284823 15 -15 15 C-10.05 10.05 -5.1 5.1 0 0 Z " fill="#3A5F92" transform="translate(349,361)"/>
<path d="M0 0 C0.66 0.33 1.32 0.66 2 1 C-2.62 5.62 -7.24 10.24 -12 15 C-12 10.39852874 -9.10228152 8.19311408 -6 5 C-4.05341967 3.24193983 -2.06456557 1.62215867 0 0 Z " fill="#E7EEF2" transform="translate(170,206)"/>
<path d="M0 0 C0 3 0 3 -1.27734375 4.46484375 C-2.38136442 5.44417503 -3.48553038 6.42334254 -4.58984375 7.40234375 C-6.21112576 9.23919788 -6.5924608 10.61151076 -7 13 C-8.65 13 -10.3 13 -12 13 C-8.19524578 8.43969176 -4.25030379 4.14910608 0 0 Z " fill="#345C92" transform="translate(331,379)"/>
<path d="M0 0 C0.99 0 1.98 0 3 0 C2.67 6.6 2.34 13.2 2 20 C1.67 20 1.34 20 1 20 C0.67 13.4 0.34 6.8 0 0 Z " fill="#34649D" transform="translate(401,253)"/>
<path d="M0 0 C0.33 0.66 0.66 1.32 1 2 C0.01 2 -0.98 2 -2 2 C-2 2.99 -2 3.98 -2 5 C-8.625 6 -8.625 6 -12 6 C-10.75443908 5.18071114 -9.50333365 4.36984814 -8.25 3.5625 C-7.20585937 2.88380859 -7.20585937 2.88380859 -6.140625 2.19140625 C-4.07042986 1.0391991 -2.31303676 0.45323018 0 0 Z " fill="#2C5C9C" transform="translate(442,213)"/>
<path d="M0 0 C0.33 0.66 0.66 1.32 1 2 C-0.64379791 6.67184669 -2.18479582 9.71103088 -6 13 C-6.66 12.67 -7.32 12.34 -8 12 C-5.36 8.04 -2.72 4.08 0 0 Z " fill="#2A5FA2" transform="translate(548,328)"/>
<path d="M0 0 C0 4 0 4 -1.3125 5.484375 C-2.875 6.65625 -4.4375 7.828125 -6 9 C-6.8125 7.3125 -6.8125 7.3125 -7 5 C-2.79545455 0 -2.79545455 0 0 0 Z " fill="#3E6299" transform="translate(389,349)"/>
<path d="M0 0 C1.32 0 2.64 0 4 0 C4 1.32 4 2.64 4 4 C4.99 4 5.98 4 7 4 C7.66 6.31 8.32 8.62 9 11 C5.74251349 7.83299923 2.72824638 4.63766184 0 1 C0 0.67 0 0.34 0 0 Z " fill="#315F97" transform="translate(274,218)"/>
<path d="M0 0 C3.67882073 3.28466137 5.75150101 6.66360908 8 11 C8 11.66 8 12.32 8 13 C7.34 13 6.68 13 6 13 C5.18162558 11.58671871 4.37053781 10.16921654 3.5625 8.75 C3.11003906 7.96109375 2.65757812 7.1721875 2.19140625 6.359375 C1.10688398 4.21166532 0.46851284 2.34794939 0 0 Z " fill="#46689B" transform="translate(526,253)"/>
<path d="M0 0 C0.99 0 1.98 0 3 0 C3.33 2.97 3.66 5.94 4 9 C3.34 9 2.68 9 2 9 C2 8.34 2 7.68 2 7 C1.34 7 0.68 7 0 7 C0 4.69 0 2.38 0 0 Z " fill="#456BA0" transform="translate(302,307)"/>
<path d="M0 0 C0 0.99 0 1.98 0 3 C-0.66 3 -1.32 3 -2 3 C-2.33 3.99 -2.66 4.98 -3 6 C-6.0625 7.1875 -6.0625 7.1875 -9 8 C-3.85714286 1.42857143 -3.85714286 1.42857143 0 0 Z " fill="#2C5C9B" transform="translate(296,414)"/>
<path d="M0 0 C2.475 0.495 2.475 0.495 5 1 C5 1.66 5 2.32 5 3 C6.32 3.66 7.64 4.32 9 5 C8.01 5.66 7.02 6.32 6 7 C4.02 4.69 2.04 2.38 0 0 Z " fill="#255895" transform="translate(199,327)"/>
<path d="M0 0 C1.65 0 3.3 0 5 0 C6.0625 1.8125 6.0625 1.8125 7 4 C6.67 4.99 6.34 5.98 6 7 C4.02 4.69 2.04 2.38 0 0 Z " fill="#3D6294" transform="translate(214,343)"/>
<path d="M0 0 C1.33597652 0.80814651 2.668725 1.62163181 4 2.4375 C5.11375 3.11619141 5.11375 3.11619141 6.25 3.80859375 C6.8275 4.20175781 7.405 4.59492188 8 5 C8 5.33 8 5.66 8 6 C5.6875 6.25 5.6875 6.25 3 6 C1.02389614 3.95575462 0 2.8823175 0 0 Z " fill="#37619B" transform="translate(495,371)"/>
<path d="M0 0 C3.63 0 7.26 0 11 0 C11.33 0.99 11.66 1.98 12 3 C6.06 2.01 6.06 2.01 0 1 C0 0.67 0 0.34 0 0 Z " fill="#436CA4" transform="translate(336,191)"/>
<path d="M0 0 C0.33 0.66 0.66 1.32 1 2 C0.34 2 -0.32 2 -1 2 C-1 2.66 -1 3.32 -1 4 C-1.99 4.66 -2.98 5.32 -4 6 C-4.99 5.67 -5.98 5.34 -7 5 C-4.63707344 2.47411298 -3.33537489 1.11179163 0 0 Z " fill="#305C98" transform="translate(308,403)"/>
<path d="M0 0 C1.98 0 3.96 0 6 0 C3.31158141 2.25245881 1.35358125 3.88213958 -2 5 C-1.34 3.35 -0.68 1.7 0 0 Z " fill="#1556A7" transform="translate(318,392)"/>
<path d="M0 0 C0.66 0.33 1.32 0.66 2 1 C1.34 2.32 0.68 3.64 0 5 C-0.99 5 -1.98 5 -3 5 C-3.33 5.99 -3.66 6.98 -4 8 C-3.50168276 4.31245243 -2.89932357 2.39509338 0 0 Z " fill="#225BA3" transform="translate(343,369)"/>
<path d="M0 0 C0.66 0.33 1.32 0.66 2 1 C-0.31 3.31 -2.62 5.62 -5 8 C-5 5 -5 5 -2.5 2.3125 C-1.675 1.549375 -0.85 0.78625 0 0 Z " fill="#D9E3EC" transform="translate(285,281)"/>
</svg>
